<svg width="16" height="13" viewBox="0 0 16 13" fill="none" xmlns="http://www.w3.org/2000/svg">
<path fill-rule="evenodd" clip-rule="evenodd" d="M12.1927 1.94571C11.5076 1.8536 10.6045 1.85254 9.33331 1.85254L6.66665 1.85254C5.39543 1.85254 4.49232 1.8536 3.80721 1.94571C3.13649 2.03589 2.75006 2.205 2.46792 2.48714C2.18578 2.76928 2.01666 3.15571 1.92649 3.82644C1.83438 4.51155 1.83331 5.41466 1.83331 6.68587C1.83331 7.95709 1.83438 8.8602 1.92649 9.54531C2.01666 10.216 2.18578 10.6025 2.46792 10.8846C2.75006 11.1667 3.13649 11.3359 3.80721 11.426C4.49232 11.5181 5.39543 11.5192 6.66665 11.5192H9.33331C10.6045 11.5192 11.5076 11.5181 12.1927 11.426C12.8635 11.3359 13.2499 11.1667 13.532 10.8846C13.8142 10.6025 13.9833 10.216 14.0735 9.54531C14.1656 8.8602 14.1666 7.95709 14.1666 6.68587C14.1666 5.41466 14.1656 4.51155 14.0735 3.82644C13.9833 3.15571 13.8142 2.76928 13.532 2.48714C13.2499 2.205 12.8635 2.03589 12.1927 1.94571ZM12.326 0.954629C13.1076 1.05971 13.7402 1.28113 14.2392 1.78003C14.7381 2.27894 14.9595 2.91158 15.0646 3.69319C15.1667 4.45267 15.1667 5.42309 15.1666 6.64827V6.72348C15.1667 7.94866 15.1667 8.91908 15.0646 9.67855C14.9595 10.4602 14.7381 11.0928 14.2392 11.5917C13.7402 12.0906 13.1076 12.312 12.326 12.4171C11.5665 12.5192 10.5961 12.5192 9.37092 12.5192H6.62904C5.40387 12.5192 4.43344 12.5192 3.67396 12.4171C2.89235 12.312 2.25972 12.0906 1.76081 11.5917C1.2619 11.0928 1.04049 10.4602 0.935403 9.67856C0.833294 8.91908 0.833303 7.94866 0.833313 6.72348V6.64826C0.833303 5.42309 0.833294 4.45267 0.935403 3.69319C1.04049 2.91158 1.2619 2.27894 1.76081 1.78004C2.25972 1.28113 2.89235 1.05971 3.67396 0.954629C4.43344 0.85252 5.40386 0.852529 6.62904 0.852539L9.37093 0.852539C10.5961 0.852529 11.5665 0.85252 12.326 0.954629ZM5.49998 10.0192C5.49998 9.74306 5.72384 9.51921 5.99998 9.51921H9.99998C10.2761 9.51921 10.5 9.74306 10.5 10.0192C10.5 10.2953 10.2761 10.5192 9.99998 10.5192H5.99998C5.72384 10.5192 5.49998 10.2953 5.49998 10.0192Z" fill="#4A59E6"/>
</svg>
