<svg width="10" height="10" viewBox="0 0 10 10" fill="none" xmlns="http://www.w3.org/2000/svg">
<path fill-rule="evenodd" clip-rule="evenodd" d="M3 1.18555C2.72386 1.18555 2.5 0.961689 2.5 0.685547C2.5 0.409405 2.72386 0.185547 3 0.185547H9C9.27614 0.185547 9.5 0.409405 9.5 0.685547V6.68555C9.5 6.96169 9.27614 7.18555 9 7.18555C8.72386 7.18555 8.5 6.96169 8.5 6.68555V1.89265L1.35355 9.0391C1.15829 9.23436 0.841709 9.23436 0.646447 9.0391C0.451184 8.84384 0.451184 8.52726 0.646447 8.33199L7.79289 1.18555H3Z" fill="#CFCFCF"/>
<path fill-rule="evenodd" clip-rule="evenodd" d="M3 1.18555C2.72386 1.18555 2.5 0.961689 2.5 0.685547C2.5 0.409405 2.72386 0.185547 3 0.185547H9C9.27614 0.185547 9.5 0.409405 9.5 0.685547V6.68555C9.5 6.96169 9.27614 7.18555 9 7.18555C8.72386 7.18555 8.5 6.96169 8.5 6.68555V1.89265L1.35355 9.0391C1.15829 9.23436 0.841709 9.23436 0.646447 9.0391C0.451184 8.84384 0.451184 8.52726 0.646447 8.33199L7.79289 1.18555H3Z" fill="black" fill-opacity="0.2"/>
</svg>
