<svg width="129" height="128" viewBox="0 0 129 128" fill="none" xmlns="http://www.w3.org/2000/svg">
<rect x="0.5" width="128" height="128" rx="64" fill="url(#paint0_linear_1014_2388)" fill-opacity="0.1"/>
<g filter="url(#filter0_d_1014_2388)">
<path fill-rule="evenodd" clip-rule="evenodd" d="M37.275 88.3707H30.5L33.6465 82.3707L53.6149 44.2935L56.9153 38L60.4604 44.1591L63.1944 48.9091L65.6149 44.2935L68.9153 38L72.4604 44.1591L94.4543 82.3707L97.9078 88.3707H90.9849H85.9078H78.9849H49.275H42.5H37.275ZM52.4215 82.3707H75.5314L63.439 61.3617L52.4215 82.3707ZM59.894 55.2026L45.6465 82.3707H40.4215L57.16 50.4526L59.894 55.2026ZM66.7395 55.0682L82.4543 82.3707H87.5314L69.16 50.4526L66.7395 55.0682Z" fill="url(#paint1_linear_1014_2388)" style="mix-blend-mode:lighten"/>
</g>
<defs>
<filter id="filter0_d_1014_2388" x="20.5" y="24" width="88" height="88" filterUnits="userSpaceOnUse" color-interpolation-filters="sRGB">
<feFlood flood-opacity="0" result="BackgroundImageFix"/>
<feColorMatrix in="SourceAlpha" type="matrix" values="0 0 0 0 0 0 0 0 0 0 0 0 0 0 0 0 0 0 127 0" result="hardAlpha"/>
<feOffset dy="4"/>
<feGaussianBlur stdDeviation="2"/>
<feComposite in2="hardAlpha" operator="out"/>
<feColorMatrix type="matrix" values="0 0 0 0 0 0 0 0 0 0 0 0 0 0 0 0 0 0 0.25 0"/>
<feBlend mode="normal" in2="BackgroundImageFix" result="effect1_dropShadow_1014_2388"/>
<feBlend mode="normal" in="SourceGraphic" in2="effect1_dropShadow_1014_2388" result="shape"/>
</filter>
<linearGradient id="paint0_linear_1014_2388" x1="64.5" y1="0" x2="-21.5671" y2="33.5422" gradientUnits="userSpaceOnUse">
<stop stop-color="#4A59E6"/>
<stop offset="1" stop-color="#1C2DC7"/>
</linearGradient>
<linearGradient id="paint1_linear_1014_2388" x1="64.2039" y1="38" x2="64.2039" y2="88.3707" gradientUnits="userSpaceOnUse">
<stop stop-color="white"/>
<stop offset="1" stop-color="white" stop-opacity="0.14"/>
</linearGradient>
</defs>
</svg>
