<svg width="65" height="64" viewBox="0 0 65 64" fill="none" xmlns="http://www.w3.org/2000/svg">
<rect x="0.5" width="64" height="64" rx="4" fill="#4A59E6" fill-opacity="0.1"/>
<path d="M27.4218 5.34536C18.1585 5.41541 13.0782 5.89909 9.73858 9.23874C7.45147 11.5258 6.50381 14.6293 6.11115 19.3336H18.0963L27.4218 5.34536Z" fill="#4A59E6"/>
<path d="M58.8889 19.3336C58.4962 14.6293 57.5485 11.5258 55.2614 9.23874C53.6686 7.64587 51.6797 6.70271 49.0299 6.14423L40.237 19.3336H58.8889Z" fill="#4A59E6"/>
<path d="M44.6069 5.56771C41.3781 5.3335 37.4206 5.3335 32.5 5.3335C32.4121 5.3335 32.3244 5.3335 32.2371 5.3335L22.9037 19.3336H35.4296L44.6069 5.56771Z" fill="#4A59E6"/>
<path opacity="0.3" d="M5.90386 23.3335C5.83334 25.8368 5.83334 28.7021 5.83334 32.0001C5.83334 44.5709 5.83334 50.8563 9.73859 54.7615C13.6438 58.6668 19.9292 58.6668 32.5 58.6668C45.0708 58.6668 51.3562 58.6668 55.2614 54.7615C59.1667 50.8563 59.1667 44.5709 59.1667 32.0001C59.1667 28.7021 59.1667 25.8368 59.0962 23.3335H5.90386Z" fill="#4E4E4E"/>
</svg>
