<svg width="139" height="18" viewBox="0 0 139 18" fill="none" xmlns="http://www.w3.org/2000/svg">
<g clip-path="url(#clip0_1132_4830)">
<rect width="17.6857" height="17.6857" rx="8.84285" fill="white"/>
<path fill-rule="evenodd" clip-rule="evenodd" d="M7.60762 0.0855861C8.01127 0.0291683 8.42365 0 8.84285 0C13.7266 0 17.6857 3.95908 17.6857 8.84285C17.6857 13.7266 13.7266 17.6857 8.84285 17.6857C3.95908 17.6857 0 13.7266 0 8.84285C0 7.65333 0.234868 6.51867 0.660759 5.48272L6.83316 9.96723L5.22007 5.00265L2.16539 3.04544C2.75414 2.36791 3.4443 1.78085 4.21224 1.3079L10.4256 5.82215L8.81248 0.857563L7.60762 0.0855861Z" fill="#4A59E6"/>
</g>
<path d="M27.0812 17.395V1.59898H32.3869C33.4691 1.59898 34.4462 1.72012 35.3184 1.96239C36.1906 2.1885 36.877 2.59229 37.3777 3.17373C37.8945 3.73903 38.153 4.51429 38.153 5.49952C38.153 6.22633 37.9592 6.92084 37.5715 7.58304C37.2 8.2291 36.6832 8.67326 36.021 8.91553V9.01244C36.8609 9.20625 37.5554 9.61003 38.1045 10.2238C38.6698 10.8375 38.9525 11.6774 38.9525 12.7434C38.9525 13.8094 38.6779 14.6896 38.1287 15.3841C37.5796 16.0625 36.8447 16.5713 35.9241 16.9104C35.0035 17.2335 33.9698 17.395 32.823 17.395H27.0812ZM30.4003 14.8269H32.5323C33.566 14.8269 34.3493 14.6412 34.8823 14.2697C35.4153 13.8821 35.6818 13.3006 35.6818 12.5253C35.6818 11.7985 35.4153 11.2736 34.8823 10.9506C34.3493 10.6114 33.566 10.4418 32.5323 10.4418H30.4003V14.8269ZM30.4003 7.97068H32.1931C33.1299 7.97068 33.8083 7.79301 34.2282 7.43768C34.6643 7.08235 34.8823 6.59781 34.8823 5.98406C34.8823 5.32186 34.6562 4.85347 34.204 4.5789C33.7679 4.30433 33.1057 4.16704 32.2174 4.16704H30.4003V7.97068Z" fill="#4A59E6"/>
<path d="M42.9145 17.6857C42.1554 17.6857 41.5497 17.5323 41.0975 17.2254C40.6453 16.9024 40.3142 16.4582 40.1042 15.8929C39.9104 15.3276 39.8135 14.6573 39.8135 13.8821V0.387632H43.1326V14.0274C43.1326 14.3827 43.1972 14.6331 43.3264 14.7785C43.4717 14.9238 43.6171 14.9965 43.7625 14.9965C43.8432 14.9965 43.9078 14.9965 43.9563 14.9965C44.0209 14.9803 44.1016 14.9642 44.1985 14.948L44.6104 17.395C44.4166 17.4757 44.1824 17.5403 43.9078 17.5888C43.6332 17.6534 43.3021 17.6857 42.9145 17.6857Z" fill="#4A59E6"/>
<path d="M50.013 17.6857C48.9955 17.6857 48.0426 17.4434 47.1542 16.9589C46.2821 16.4582 45.5714 15.7395 45.0223 14.8027C44.4731 13.8659 44.1985 12.7353 44.1985 11.4109C44.1985 10.0865 44.4731 8.95591 45.0223 8.01913C45.5714 7.08235 46.2821 6.36362 47.1542 5.86293C48.0426 5.36224 48.9955 5.11189 50.013 5.11189C51.0144 5.11189 51.9512 5.36224 52.8233 5.86293C53.7117 6.36362 54.4304 7.08235 54.9795 8.01913C55.5287 8.95591 55.8033 10.0865 55.8033 11.4109C55.8033 12.7353 55.5287 13.8659 54.9795 14.8027C54.4304 15.7395 53.7117 16.4582 52.8233 16.9589C51.9512 17.4434 51.0144 17.6857 50.013 17.6857ZM50.013 14.9965C50.5299 14.9965 50.9659 14.8511 51.3213 14.5604C51.6766 14.2697 51.9431 13.8578 52.1208 13.3248C52.2984 12.7757 52.3873 12.1377 52.3873 11.4109C52.3873 10.6841 52.2984 10.0542 52.1208 9.5212C51.9431 8.97206 51.6766 8.55212 51.3213 8.2614C50.9659 7.95452 50.5299 7.80109 50.013 7.80109C49.48 7.80109 49.0359 7.95452 48.6805 8.2614C48.3252 8.55212 48.0587 8.97206 47.881 9.5212C47.7034 10.0542 47.6145 10.6841 47.6145 11.4109C47.6145 12.1377 47.7034 12.7757 47.881 13.3248C48.0587 13.8578 48.3252 14.2697 48.6805 14.5604C49.0359 14.8511 49.48 14.9965 50.013 14.9965Z" fill="#4A59E6"/>
<path d="M66.5795 17.6857V0.387632H69.826V10.4176H69.9229L73.0534 5.40262H76.2711L73.3631 10.3207L77.7853 17.6857H74.3784L71.4734 12.5496L69.826 14.4151V17.6857H66.5795Z" fill="#4A59E6"/>
<path d="M82.5709 17.6857C81.1172 17.6857 80.0755 17.2658 79.4456 16.4259C78.8318 15.586 78.5249 14.4877 78.5249 13.131V8.01913H76.8775V5.40262H78.7188L79.1064 2.20466H81.844V5.40262H84.7755V8.01913H81.844V13.1068C81.844 13.7852 81.9813 14.2858 82.2559 14.6089C82.5466 14.9157 82.9423 15.0692 83.443 15.0692C83.653 15.0692 83.863 15.045 84.0729 14.9965C84.2829 14.948 84.4686 14.8915 84.6301 14.8269L85.1631 17.2496C84.8401 17.3465 84.4606 17.4434 84.0245 17.5403C83.5884 17.6372 83.1038 17.6857 82.5709 17.6857Z" fill="#4A59E6"/>
<path d="M90.9044 17.6857C89.7738 17.6857 88.7482 17.4353 87.8275 16.9347C86.9231 16.434 86.2043 15.7233 85.6713 14.8027C85.1383 13.8659 84.8719 12.7353 84.8719 11.4109C84.8719 10.1188 85.1383 9.00436 85.6713 8.06758C86.2205 7.13081 86.9231 6.404 87.7791 5.88716C88.6351 5.37031 89.5396 5.11189 90.4925 5.11189C91.607 5.11189 92.5357 5.36224 93.2786 5.86293C94.0377 6.36362 94.603 7.05005 94.9745 7.92222C95.3621 8.77824 95.5559 9.7554 95.5559 10.8537C95.5559 11.1444 95.5398 11.4351 95.5075 11.7259C95.4752 12.0004 95.4429 12.2104 95.4106 12.3558H87.4884L87.4641 10.1511H92.6972C92.6972 9.40814 92.5276 8.81054 92.1884 8.35831C91.8492 7.88992 91.3082 7.65573 90.5652 7.65573C90.1291 7.65573 89.7092 7.77686 89.3054 8.01913C88.9016 8.2614 88.5705 8.66518 88.3121 9.23048C88.0537 9.77962 87.9245 10.5064 87.9245 11.4109C87.9245 12.3315 88.086 13.0664 88.409 13.6156C88.7482 14.1486 89.1762 14.5362 89.693 14.7785C90.2099 15.0207 90.759 15.1419 91.3405 15.1419C91.825 15.1419 92.2772 15.0773 92.6972 14.948C93.1332 14.8027 93.5693 14.6008 94.0054 14.3424L95.0956 16.3532C94.498 16.757 93.8278 17.08 93.0848 17.3223C92.358 17.5646 91.6312 17.6857 90.9044 17.6857Z" fill="#4A59E6"/>
<path d="M104.334 17.5842V5.40262H107.653V17.5842H104.334ZM106.006 3.56137C105.473 3.56137 105.028 3.39178 104.673 3.0526C104.318 2.71342 104.14 2.28541 104.14 1.76857C104.14 1.25173 104.318 0.831793 104.673 0.508767C105.028 0.169589 105.473 0 106.006 0C106.555 0 106.999 0.169589 107.338 0.508767C107.693 0.831793 107.871 1.25173 107.871 1.76857C107.871 2.28541 107.693 2.71342 107.338 3.0526C106.999 3.39178 106.555 3.56137 106.006 3.56137Z" fill="#4A59E6"/>
<path d="M112.946 17.6857C111.67 17.6857 110.733 17.2577 110.135 16.4017C109.538 15.5456 109.239 14.3666 109.239 12.8645V5.40262H112.558V12.4527C112.558 13.3571 112.687 13.987 112.946 14.3424C113.22 14.6815 113.632 14.8511 114.181 14.8511C114.65 14.8511 115.053 14.7462 115.393 14.5362C115.732 14.3101 116.087 13.9386 116.459 13.4217V5.40262H119.778V17.6857H117.154L116.822 15.6991H116.749C116.232 16.3128 115.675 16.7974 115.078 17.1527C114.48 17.508 113.769 17.6857 112.946 17.6857Z" fill="#4A59E6"/>
<path d="M121.484 17.6857V5.40262H124.197L124.44 6.97737H124.537C125.021 6.47668 125.554 6.04059 126.135 5.66911C126.717 5.29763 127.395 5.11189 128.171 5.11189C129.027 5.11189 129.721 5.29763 130.254 5.66911C130.787 6.02444 131.199 6.52513 131.49 7.17119C132.023 6.60589 132.588 6.12135 133.186 5.71757C133.799 5.31378 134.494 5.11189 135.269 5.11189C136.561 5.11189 137.506 5.5399 138.104 6.39592C138.701 7.25194 139 8.43099 139 9.93306V17.6857H135.681V10.3691C135.681 9.46467 135.552 8.83477 135.293 8.47944C135.051 8.12411 134.655 7.94645 134.106 7.94645C133.767 7.94645 133.42 8.05143 133.064 8.2614C132.709 8.47137 132.321 8.79439 131.902 9.23048V17.6857H128.582V10.3691C128.582 9.46467 128.453 8.83477 128.195 8.47944C127.953 8.12411 127.557 7.94645 127.008 7.94645C126.345 7.94645 125.611 8.37446 124.803 9.23048L124.725 17.6857H121.484Z" fill="#4A59E6"/>
<path d="M59.2916 5.86293C58.3548 6.36362 57.5957 7.08235 57.0142 8.01913C55.5128 10.4381 55.8467 11.0713 56.7364 11.4147C57.658 11.0176 59.2351 11.0312 59.9215 9.5212C60.1637 8.97206 60.5029 8.55212 60.939 8.2614C61.3912 7.95452 61.9162 7.80109 62.5138 7.80109C63.1762 7.80109 63.7624 8.13103 64.2339 8.57635L65.8329 6.42015C65.3968 6.04867 64.888 5.74179 64.3066 5.49952C63.7251 5.2411 63.0629 5.11189 62.3199 5.11189C61.2378 5.11189 60.2284 5.36224 59.2916 5.86293Z" fill="#4A59E6"/>
<path d="M59.0493 16.9589C59.9376 17.4434 60.9309 17.6857 62.0292 17.6857C62.6914 17.6857 63.3698 17.5726 64.0643 17.3465C64.7588 17.1204 65.2932 16.6379 65.8329 16.0701L64.2339 14.1773C63.6413 14.6763 63.2211 14.9965 62.3926 14.9965C61.8435 14.9965 61.3509 14.8511 60.9148 14.5604C60.4948 14.2697 60.1637 13.8578 59.9215 13.3248C59.2564 11.8173 57.6823 11.7798 56.7364 11.4147C55.9176 11.7675 55.6163 12.4445 56.9173 14.8027C57.4503 15.7395 58.161 16.4582 59.0493 16.9589Z" fill="#4A59E6"/>
<path d="M96.4686 17.5842V5.40262H99.182L99.4243 7.51036H99.5212C99.9573 6.71895 100.474 6.12135 101.072 5.71757C101.661 5.3296 102.471 5.37364 103.155 5.40262V8.09181C102.978 8.05951 102.76 8.04336 102.501 8.04336C102.033 8.04336 101.548 8.21295 101.048 8.55212C100.547 8.8913 100.127 9.4889 99.7877 10.3449V17.5842H96.4686Z" fill="#4A59E6"/>
<defs>
<clipPath id="clip0_1132_4830">
<rect width="17.6857" height="17.6857" rx="8.84285" fill="white"/>
</clipPath>
</defs>
</svg>
