<svg width="129" height="128" viewBox="0 0 129 128" fill="none" xmlns="http://www.w3.org/2000/svg">
<rect x="0.5" width="128" height="128" rx="51" fill="url(#paint0_linear_1369_497)" fill-opacity="0.1"/>
<path fill-rule="evenodd" clip-rule="evenodd" d="M62.4964 87.4558C60.8878 87.8121 59.2158 88 57.5 88C44.7975 88 34.5 77.7025 34.5 65C34.5 52.2975 44.7975 42 57.5 42C59.2158 42 60.8878 42.1879 62.4964 42.5442C54.2049 46.6138 48.4973 55.1403 48.4973 65C48.4973 74.8597 54.2049 83.3862 62.4964 87.4558ZM65.4986 86.571C56.7393 83.3218 50.4973 74.8899 50.4973 65C50.4973 55.1101 56.7393 46.6782 65.4986 43.429C74.2579 46.6782 80.5 55.1101 80.5 65C80.5 74.8899 74.2579 83.3218 65.4986 86.571ZM65.4986 88.6931C62.9873 89.5406 60.2973 90 57.5 90C43.6929 90 32.5 78.8071 32.5 65C32.5 51.1929 43.6929 40 57.5 40C60.2973 40 62.9873 40.4594 65.4986 41.3069C68.01 40.4594 70.7 40 73.4973 40C87.3044 40 98.4973 51.1929 98.4973 65C98.4973 78.8071 87.3044 90 73.4973 90C70.7 90 68.01 89.5406 65.4986 88.6931ZM68.5009 42.5442C70.1095 42.1879 71.7814 42 73.4973 42C86.1998 42 96.4973 52.2975 96.4973 65C96.4973 77.7025 86.1998 88 73.4973 88C71.7814 88 70.1095 87.8121 68.5009 87.4558C76.7923 83.3862 82.5 74.8597 82.5 65C82.5 55.1403 76.7923 46.6138 68.5009 42.5442Z" fill="#4A59E6"/>
<defs>
<linearGradient id="paint0_linear_1369_497" x1="64.5" y1="0" x2="-21.5671" y2="33.5422" gradientUnits="userSpaceOnUse">
<stop stop-color="#4A59E6"/>
<stop offset="1" stop-color="#1C2DC7"/>
</linearGradient>
</defs>
</svg>
