<svg width="64" height="64" viewBox="0 0 64 64" fill="none" xmlns="http://www.w3.org/2000/svg">
<rect width="64" height="64" rx="4" fill="#4A59E6" fill-opacity="0.1"/>
<path d="M32 26.6668C43.7821 26.6668 53.3333 21.8912 53.3333 16.0002C53.3333 10.1091 43.7821 5.3335 32 5.3335C20.2179 5.3335 10.6667 10.1091 10.6667 16.0002C10.6667 21.8912 20.2179 26.6668 32 26.6668Z" fill="#4A59E6"/>
<path opacity="0.3" d="M10.6667 32V48C10.6667 53.891 20.2179 58.6667 32 58.6667C43.7821 58.6667 53.3333 53.891 53.3333 48V32C53.3333 37.891 43.7821 42.6667 32 42.6667C20.2179 42.6667 10.6667 37.891 10.6667 32Z" fill="#4E4E4E"/>
<path opacity="0.7" d="M10.6667 16V32C10.6667 37.891 20.2179 42.6667 32 42.6667C43.7821 42.6667 53.3333 37.891 53.3333 32V16C53.3333 21.891 43.7821 26.6667 32 26.6667C20.2179 26.6667 10.6667 21.891 10.6667 16Z" fill="#C5CAFF"/>
</svg>
