<svg width="129" height="128" viewBox="0 0 129 128" fill="none" xmlns="http://www.w3.org/2000/svg">
<rect x="0.5" width="128" height="128" rx="51" fill="url(#paint0_linear_1024_2347)" fill-opacity="0.1"/>
<path d="M64.5 37.3335C84.75 37.3335 101.167 46.2868 101.167 57.3335V70.6668C101.167 81.7135 84.75 90.6668 64.5 90.6668C44.61 90.6668 28.42 82.0302 27.85 71.2568L27.8333 70.6668V57.3335C27.8333 46.2868 44.25 37.3335 64.5 37.3335ZM64.5 77.3335C52.1 77.3335 41.1333 73.9768 34.5 68.8335V70.6668C34.5 76.9402 47.4433 84.0002 64.5 84.0002C81.2 84.0002 93.96 77.2335 94.4833 71.0602L94.5 70.6668L94.5033 68.8335C87.87 73.9735 76.9033 77.3335 64.5 77.3335ZM64.5 44.0002C47.4433 44.0002 34.5 51.0602 34.5 57.3335C34.5 63.6068 47.4433 70.6668 64.5 70.6668C81.5567 70.6668 94.5 63.6068 94.5 57.3335C94.5 51.0602 81.5567 44.0002 64.5 44.0002Z" fill="url(#paint1_linear_1024_2347)" style="mix-blend-mode:lighten"/>
<defs>
<linearGradient id="paint0_linear_1024_2347" x1="64.5" y1="0" x2="-21.5671" y2="33.5422" gradientUnits="userSpaceOnUse">
<stop stop-color="#4A59E6"/>
<stop offset="1" stop-color="#1C2DC7"/>
</linearGradient>
<linearGradient id="paint1_linear_1024_2347" x1="64.5" y1="37.3335" x2="64.5" y2="90.6668" gradientUnits="userSpaceOnUse">
<stop stop-color="white"/>
<stop offset="1" stop-color="white" stop-opacity="0.14"/>
</linearGradient>
</defs>
</svg>
