<svg width="129" height="128" viewBox="0 0 129 128" fill="none" xmlns="http://www.w3.org/2000/svg">
<rect x="0.5" width="128" height="128" rx="51" fill="url(#paint0_linear_1014_2311)" fill-opacity="0.1"/>
<path fill-rule="evenodd" clip-rule="evenodd" d="M57.2465 83.9983C51.8911 79.4131 48.4973 72.6029 48.4973 65C48.4973 57.3971 51.8911 50.5869 57.2465 46.0017C46.87 46.1373 38.5 54.5912 38.5 65C38.5 75.4088 46.87 83.8627 57.2465 83.9983ZM76.5 65C76.5 72.636 71.9954 79.2199 65.4986 82.2393C59.0018 79.2199 54.4973 72.636 54.4973 65C54.4973 57.364 59.0018 50.7801 65.4986 47.7607C71.9954 50.7801 76.5 57.364 76.5 65ZM73.7507 46.0017C79.1061 50.5869 82.5 57.3971 82.5 65C82.5 72.6029 79.1061 79.4131 73.7507 83.9983C84.1273 83.8627 92.4973 75.4088 92.4973 65C92.4973 54.5912 84.1273 46.1373 73.7507 46.0017ZM65.4986 88.6931C62.9873 89.5406 60.2973 90 57.5 90C43.6929 90 32.5 78.8071 32.5 65C32.5 51.1929 43.6929 40 57.5 40C60.2973 40 62.9873 40.4594 65.4986 41.3069C68.01 40.4594 70.7 40 73.4973 40C87.3044 40 98.4973 51.1929 98.4973 65C98.4973 78.8071 87.3044 90 73.4973 90C70.7 90 68.01 89.5406 65.4986 88.6931Z" fill="url(#paint1_linear_1014_2311)" style="mix-blend-mode:lighten"/>
<defs>
<linearGradient id="paint0_linear_1014_2311" x1="64.5" y1="0" x2="-21.5671" y2="33.5422" gradientUnits="userSpaceOnUse">
<stop stop-color="#4A59E6"/>
<stop offset="1" stop-color="#1C2DC7"/>
</linearGradient>
<linearGradient id="paint1_linear_1014_2311" x1="65.4986" y1="40" x2="65.4986" y2="90" gradientUnits="userSpaceOnUse">
<stop stop-color="white"/>
<stop offset="1" stop-color="white" stop-opacity="0.14"/>
</linearGradient>
</defs>
</svg>
