<svg width="20" height="20" viewBox="0 0 20 20" fill="none" xmlns="http://www.w3.org/2000/svg">
<path d="M14.3401 0C17.7301 0 20.0001 2.38 20.0001 5.92V14.091C20.0001 17.62 17.7301 20 14.3401 20H5.67011C2.28011 20 0.000106812 17.62 0.000106812 14.091V5.92C0.000106812 2.38 2.28011 0 5.67011 0H14.3401ZM14.1801 7C13.8401 6.66 13.2801 6.66 12.9401 7L8.81011 11.13L7.06011 9.38C6.72011 9.04 6.16011 9.04 5.82011 9.38C5.48011 9.72 5.48011 10.27 5.82011 10.62L8.20011 12.99C8.37011 13.16 8.59011 13.24 8.81011 13.24C9.04011 13.24 9.26011 13.16 9.43011 12.99L14.1801 8.24C14.5201 7.9 14.5201 7.35 14.1801 7Z" fill="#8CCA66"/>
</svg>
