<svg width="16" height="17" viewBox="0 0 16 17" fill="none" xmlns="http://www.w3.org/2000/svg">
<g clip-path="url(#clip0_1132_4858)">
<path d="M2.66669 4.68522V13.3519C2.66669 14.4565 3.56212 15.3519 4.66669 15.3519H11.3334C12.4379 15.3519 13.3334 14.4565 13.3334 13.3519V6.68522C13.3334 5.58065 12.4379 4.68522 11.3334 4.68522H2.66669ZM2.66669 4.68522V4.01855" stroke="#4E4E4E" stroke-width="1.5"/>
<path d="M12 4.68556V5.43556H12.75V4.68556H12ZM10.4781 2.23631L10.3721 1.49385L10.4781 2.23631ZM3.27975 3.26465L3.17368 2.52218L3.17368 2.52218L3.27975 3.26465ZM3.38073 5.43556H12V3.93556H3.38073V5.43556ZM12.75 4.68556V3.55624H11.25V4.68556H12.75ZM10.3721 1.49385L3.17368 2.52218L3.38582 4.00711L10.5842 2.97877L10.3721 1.49385ZM3.17368 2.52218C2.45242 2.62522 1.91669 3.24293 1.91669 3.97152H3.41669C3.41669 3.98941 3.40353 4.00458 3.38582 4.00711L3.17368 2.52218ZM12.75 3.55624C12.75 2.28843 11.6271 1.31455 10.3721 1.49385L10.5842 2.97877C10.9356 2.92857 11.25 3.20125 11.25 3.55624H12.75ZM3.38073 3.93556C3.40059 3.93556 3.41669 3.95166 3.41669 3.97152H1.91669C1.91669 4.78009 2.57216 5.43556 3.38073 5.43556V3.93556Z" fill="#4E4E4E"/>
<path d="M5.33331 8.68555H10.6666" stroke="#4E4E4E" stroke-width="1.5" stroke-linecap="round"/>
<path d="M5.33331 11.0186H8.99998" stroke="#4E4E4E" stroke-width="1.5" stroke-linecap="round"/>
</g>
<defs>
<clipPath id="clip0_1132_4858">
<rect width="16" height="16" fill="white" transform="translate(0 0.685547)"/>
</clipPath>
</defs>
</svg>
