<svg width="16" height="17" viewBox="0 0 16 17" fill="none" xmlns="http://www.w3.org/2000/svg">
<path fill-rule="evenodd" clip-rule="evenodd" d="M12.1927 3.94571C11.5076 3.8536 10.6045 3.85254 9.33331 3.85254L6.66665 3.85254C5.39543 3.85254 4.49232 3.8536 3.80721 3.94571C3.13649 4.03589 2.75006 4.205 2.46792 4.48714C2.18578 4.76928 2.01666 5.15571 1.92649 5.82644C1.83438 6.51155 1.83331 7.41466 1.83331 8.68587C1.83331 9.95709 1.83438 10.8602 1.92649 11.5453C2.01666 12.216 2.18578 12.6025 2.46792 12.8846C2.75006 13.1667 3.13649 13.3359 3.80721 13.426C4.49232 13.5181 5.39543 13.5192 6.66665 13.5192H9.33331C10.6045 13.5192 11.5076 13.5181 12.1927 13.426C12.8635 13.3359 13.2499 13.1667 13.532 12.8846C13.8142 12.6025 13.9833 12.216 14.0735 11.5453C14.1656 10.8602 14.1666 9.95709 14.1666 8.68587C14.1666 7.41466 14.1656 6.51155 14.0735 5.82644C13.9833 5.15571 13.8142 4.76928 13.532 4.48714C13.2499 4.205 12.8635 4.03589 12.1927 3.94571ZM12.326 2.95463C13.1076 3.05971 13.7402 3.28113 14.2392 3.78003C14.7381 4.27894 14.9595 4.91158 15.0646 5.69319C15.1667 6.45267 15.1667 7.42309 15.1666 8.64827V8.72348C15.1667 9.94866 15.1667 10.9191 15.0646 11.6786C14.9595 12.4602 14.7381 13.0928 14.2392 13.5917C13.7402 14.0906 13.1076 14.312 12.326 14.4171C11.5665 14.5192 10.5961 14.5192 9.37092 14.5192H6.62904C5.40387 14.5192 4.43344 14.5192 3.67396 14.4171C2.89235 14.312 2.25972 14.0906 1.76081 13.5917C1.2619 13.0928 1.04049 12.4602 0.935403 11.6786C0.833294 10.9191 0.833303 9.94866 0.833313 8.72348V8.64826C0.833303 7.42309 0.833294 6.45267 0.935403 5.69319C1.04049 4.91158 1.2619 4.27894 1.76081 3.78004C2.25972 3.28113 2.89235 3.05971 3.67396 2.95463C4.43344 2.85252 5.40386 2.85253 6.62904 2.85254L9.37093 2.85254C10.5961 2.85253 11.5665 2.85252 12.326 2.95463ZM5.49998 12.0192C5.49998 11.7431 5.72384 11.5192 5.99998 11.5192H9.99998C10.2761 11.5192 10.5 11.7431 10.5 12.0192C10.5 12.2953 10.2761 12.5192 9.99998 12.5192H5.99998C5.72384 12.5192 5.49998 12.2953 5.49998 12.0192Z" fill="black"/>
</svg>
