<svg width="16" height="17" viewBox="0 0 16 17" fill="none" xmlns="http://www.w3.org/2000/svg">
<path fill-rule="evenodd" clip-rule="evenodd" d="M15.1667 8.68522C15.1667 4.72718 11.9581 1.51855 8.00002 1.51855C4.04198 1.51855 0.833353 4.72718 0.833353 8.68522C0.833353 9.83076 1.10249 10.9149 1.58144 11.8765C1.65291 12.0199 1.66807 12.1665 1.63509 12.2897L1.23802 13.7738C0.966203 14.7896 1.8956 15.719 2.91149 15.4472L4.39551 15.0502C4.51878 15.0172 4.66529 15.0323 4.80879 15.1038C5.77037 15.5828 6.85448 15.8519 8.00002 15.8519C11.9581 15.8519 15.1667 12.6433 15.1667 8.68522ZM8.00002 2.51855C11.4058 2.51855 14.1667 5.27947 14.1667 8.68522C14.1667 12.091 11.4058 14.8519 8.00002 14.8519C7.01265 14.8519 6.08082 14.6202 5.25463 14.2087C4.92302 14.0435 4.52651 13.9799 4.13704 14.0841L2.65302 14.4812C2.38046 14.5541 2.13111 14.3048 2.20404 14.0322L2.60111 12.5482C2.70532 12.1587 2.64171 11.7622 2.47655 11.4306C2.06504 10.6044 1.83335 9.67259 1.83335 8.68522C1.83335 5.27947 4.59426 2.51855 8.00002 2.51855Z" fill="black"/>
</svg>
