<svg width="677" height="712" viewBox="0 0 677 712" fill="none" xmlns="http://www.w3.org/2000/svg">
<rect width="752" height="712" rx="26" fill="#F4F5FF" fill-opacity="0.05"/>
<rect x="72.6639" y="143.664" width="531.672" height="424.672" rx="18.3361" fill="white"/>
<rect x="103.866" y="174.866" width="63.7311" height="63.7311" rx="31.8655" fill="#9747FF"/>
<path opacity="0.5" d="M125.049 196.19C123.782 197.935 123.782 200.425 123.782 205.403V208.059C123.782 213.037 123.782 215.527 125.049 217.272C125.459 217.835 125.954 218.331 126.518 218.74C128.263 220.008 130.752 220.008 135.731 220.008C140.71 220.008 143.199 220.008 144.944 218.74C145.508 218.331 146.003 217.835 146.413 217.272C147.681 215.527 147.681 213.037 147.681 208.059V205.403C147.681 200.425 147.681 197.935 146.413 196.19C146.003 195.627 145.508 195.131 144.944 194.722C143.199 193.454 140.71 193.454 135.731 193.454C130.752 193.454 128.263 193.454 126.518 194.722C125.954 195.131 125.459 195.627 125.049 196.19Z" fill="white"/>
<path d="M129.092 201.752C128.542 201.752 128.097 202.198 128.097 202.748C128.097 203.298 128.542 203.744 129.092 203.744H142.37C142.92 203.744 143.366 203.298 143.366 202.748C143.366 202.198 142.92 201.752 142.37 201.752H129.092Z" fill="white"/>
<path d="M136.509 208.681C136.852 208.251 136.783 207.625 136.353 207.281C135.924 206.938 135.297 207.007 134.954 207.437L132.298 210.756C132.059 211.055 132.012 211.465 132.178 211.81C132.344 212.155 132.693 212.374 133.076 212.374H136.315L134.954 214.075C134.61 214.505 134.68 215.131 135.109 215.475C135.538 215.819 136.165 215.749 136.509 215.32L139.164 212C139.403 211.701 139.45 211.292 139.284 210.947C139.118 210.602 138.769 210.382 138.387 210.382H135.147L136.509 208.681Z" fill="white"/>
<path d="M182.552 214.731V200.88H191.177V203.323H185.463V206.765H190.349V209.208H185.463V214.731H182.552ZM193.334 214.731V204.216H195.713L195.926 206.064H196.011C196.393 205.37 196.846 204.846 197.37 204.492C197.909 204.138 198.447 203.961 198.985 203.961C199.268 203.961 199.509 203.982 199.707 204.024C199.905 204.053 200.075 204.102 200.217 204.173L199.728 206.701C199.544 206.644 199.367 206.602 199.197 206.574C199.042 206.545 198.85 206.531 198.624 206.531C198.213 206.531 197.788 206.68 197.349 206.977C196.91 207.275 196.542 207.799 196.244 208.549V214.731H193.334ZM206.264 214.986C205.273 214.986 204.373 214.767 203.566 214.328C202.773 213.889 202.143 213.265 201.675 212.458C201.208 211.637 200.974 210.645 200.974 209.484C200.974 208.351 201.208 207.374 201.675 206.552C202.157 205.731 202.773 205.094 203.524 204.64C204.274 204.187 205.067 203.961 205.903 203.961C206.88 203.961 207.694 204.18 208.346 204.619C209.012 205.058 209.507 205.66 209.833 206.425C210.173 207.176 210.343 208.032 210.343 208.995C210.343 209.25 210.329 209.505 210.3 209.76C210.272 210.001 210.244 210.185 210.215 210.313H203.269L203.247 208.379H207.836C207.836 207.728 207.687 207.204 207.39 206.807C207.093 206.397 206.618 206.191 205.967 206.191C205.584 206.191 205.216 206.297 204.862 206.51C204.508 206.722 204.218 207.076 203.991 207.572C203.764 208.054 203.651 208.691 203.651 209.484C203.651 210.291 203.793 210.936 204.076 211.417C204.373 211.885 204.749 212.224 205.202 212.437C205.655 212.649 206.137 212.756 206.646 212.756C207.071 212.756 207.468 212.699 207.836 212.586C208.218 212.458 208.601 212.281 208.983 212.054L209.939 213.818C209.415 214.172 208.827 214.455 208.176 214.667C207.539 214.88 206.901 214.986 206.264 214.986ZM217.176 214.986C216.185 214.986 215.286 214.767 214.478 214.328C213.685 213.889 213.055 213.265 212.588 212.458C212.12 211.637 211.887 210.645 211.887 209.484C211.887 208.351 212.12 207.374 212.588 206.552C213.069 205.731 213.685 205.094 214.436 204.64C215.186 204.187 215.98 203.961 216.815 203.961C217.792 203.961 218.607 204.18 219.258 204.619C219.924 205.058 220.419 205.66 220.745 206.425C221.085 207.176 221.255 208.032 221.255 208.995C221.255 209.25 221.241 209.505 221.213 209.76C221.184 210.001 221.156 210.185 221.128 210.313H214.181L214.16 208.379H218.748C218.748 207.728 218.6 207.204 218.302 206.807C218.005 206.397 217.53 206.191 216.879 206.191C216.496 206.191 216.128 206.297 215.774 206.51C215.42 206.722 215.13 207.076 214.903 207.572C214.677 208.054 214.563 208.691 214.563 209.484C214.563 210.291 214.705 210.936 214.988 211.417C215.286 211.885 215.661 212.224 216.114 212.437C216.567 212.649 217.049 212.756 217.559 212.756C217.984 212.756 218.38 212.699 218.748 212.586C219.131 212.458 219.513 212.281 219.895 212.054L220.851 213.818C220.327 214.172 219.74 214.455 219.088 214.667C218.451 214.88 217.814 214.986 217.176 214.986ZM230.684 214.731V203.323H226.797V200.88H237.482V203.323H233.595V214.731H230.684ZM244.084 214.986C243.092 214.986 242.193 214.767 241.386 214.328C240.593 213.889 239.962 213.265 239.495 212.458C239.028 211.637 238.794 210.645 238.794 209.484C238.794 208.351 239.028 207.374 239.495 206.552C239.976 205.731 240.593 205.094 241.343 204.64C242.094 204.187 242.887 203.961 243.722 203.961C244.7 203.961 245.514 204.18 246.165 204.619C246.831 205.058 247.327 205.66 247.653 206.425C247.992 207.176 248.162 208.032 248.162 208.995C248.162 209.25 248.148 209.505 248.12 209.76C248.092 210.001 248.063 210.185 248.035 210.313H241.088L241.067 208.379H245.656C245.656 207.728 245.507 207.204 245.21 206.807C244.912 206.397 244.438 206.191 243.786 206.191C243.404 206.191 243.036 206.297 242.682 206.51C242.327 206.722 242.037 207.076 241.811 207.572C241.584 208.054 241.471 208.691 241.471 209.484C241.471 210.291 241.612 210.936 241.895 211.417C242.193 211.885 242.568 212.224 243.021 212.437C243.475 212.649 243.956 212.756 244.466 212.756C244.891 212.756 245.287 212.699 245.656 212.586C246.038 212.458 246.42 212.281 246.803 212.054L247.759 213.818C247.235 214.172 246.647 214.455 245.996 214.667C245.358 214.88 244.721 214.986 244.084 214.986ZM253.403 214.986C252.709 214.986 251.993 214.852 251.257 214.582C250.535 214.299 249.912 213.945 249.388 213.52L250.705 211.693C251.186 212.047 251.654 212.324 252.107 212.522C252.56 212.72 253.02 212.819 253.488 212.819C253.983 212.819 254.344 212.727 254.571 212.543C254.798 212.359 254.911 212.111 254.911 211.8C254.911 211.559 254.805 211.353 254.592 211.184C254.394 210.999 254.125 210.844 253.785 210.716C253.459 210.575 253.112 210.433 252.744 210.291C252.305 210.121 251.866 209.909 251.427 209.654C251.002 209.399 250.641 209.073 250.344 208.677C250.06 208.28 249.919 207.792 249.919 207.211C249.919 206.248 250.28 205.469 251.002 204.874C251.724 204.265 252.68 203.961 253.87 203.961C254.663 203.961 255.357 204.095 255.952 204.364C256.547 204.633 257.064 204.938 257.503 205.278L256.207 207.041C255.824 206.758 255.449 206.538 255.081 206.382C254.713 206.212 254.337 206.128 253.955 206.128C253.516 206.128 253.183 206.22 252.956 206.404C252.744 206.574 252.638 206.8 252.638 207.083C252.638 207.31 252.737 207.501 252.935 207.657C253.134 207.813 253.396 207.954 253.721 208.082C254.047 208.209 254.394 208.337 254.762 208.464C255.215 208.634 255.662 208.847 256.101 209.102C256.54 209.342 256.908 209.668 257.205 210.079C257.503 210.475 257.651 210.992 257.651 211.63C257.651 212.253 257.488 212.819 257.163 213.329C256.837 213.839 256.355 214.243 255.718 214.54C255.095 214.837 254.323 214.986 253.403 214.986ZM263.63 214.986C262.356 214.986 261.442 214.618 260.89 213.881C260.352 213.145 260.083 212.182 260.083 210.992V206.51H258.638V204.343L260.253 204.216L260.593 201.411H262.993V204.216H265.564V206.51H262.993V210.971C262.993 211.566 263.114 212.005 263.354 212.288C263.609 212.557 263.956 212.692 264.395 212.692C264.579 212.692 264.763 212.671 264.948 212.628C265.132 212.586 265.295 212.536 265.436 212.479L265.904 214.604C265.62 214.689 265.287 214.774 264.905 214.859C264.523 214.944 264.098 214.986 263.63 214.986ZM267.666 214.731V204.216H270.046L270.258 205.575H270.343C270.796 205.136 271.292 204.761 271.83 204.449C272.382 204.124 273.02 203.961 273.742 203.961C274.875 203.961 275.696 204.336 276.206 205.087C276.73 205.837 276.992 206.871 276.992 208.188V214.731H274.082V208.571C274.082 207.777 273.969 207.225 273.742 206.914C273.515 206.602 273.161 206.446 272.68 206.446C272.255 206.446 271.894 206.545 271.596 206.744C271.299 206.928 270.959 207.204 270.577 207.572V214.731H267.666ZM284.393 214.986C283.401 214.986 282.502 214.767 281.695 214.328C280.902 213.889 280.271 213.265 279.804 212.458C279.337 211.637 279.103 210.645 279.103 209.484C279.103 208.351 279.337 207.374 279.804 206.552C280.286 205.731 280.902 205.094 281.652 204.64C282.403 204.187 283.196 203.961 284.032 203.961C285.009 203.961 285.823 204.18 286.475 204.619C287.14 205.058 287.636 205.66 287.962 206.425C288.302 207.176 288.471 208.032 288.471 208.995C288.471 209.25 288.457 209.505 288.429 209.76C288.401 210.001 288.372 210.185 288.344 210.313H281.397L281.376 208.379H285.965C285.965 207.728 285.816 207.204 285.519 206.807C285.221 206.397 284.747 206.191 284.095 206.191C283.713 206.191 283.345 206.297 282.991 206.51C282.637 206.722 282.346 207.076 282.12 207.572C281.893 208.054 281.78 208.691 281.78 209.484C281.78 210.291 281.921 210.936 282.205 211.417C282.502 211.885 282.877 212.224 283.33 212.437C283.784 212.649 284.265 212.756 284.775 212.756C285.2 212.756 285.596 212.699 285.965 212.586C286.347 212.458 286.729 212.281 287.112 212.054L288.068 213.818C287.544 214.172 286.956 214.455 286.305 214.667C285.667 214.88 285.03 214.986 284.393 214.986ZM294.604 214.986C293.329 214.986 292.416 214.618 291.863 213.881C291.325 213.145 291.056 212.182 291.056 210.992V206.51H289.612V204.343L291.226 204.216L291.566 201.411H293.967V204.216H296.537V206.51H293.967V210.971C293.967 211.566 294.087 212.005 294.328 212.288C294.583 212.557 294.93 212.692 295.369 212.692C295.553 212.692 295.737 212.671 295.921 212.628C296.105 212.586 296.268 212.536 296.41 212.479L296.877 214.604C296.594 214.689 296.261 214.774 295.879 214.859C295.496 214.944 295.071 214.986 294.604 214.986Z" fill="black" fill-opacity="0.8"/>
<path d="M105.464 273.529V261.354H107.416L111.468 268.548L112.751 271.113H112.825C112.788 270.493 112.738 269.83 112.676 269.124C112.614 268.418 112.583 267.736 112.583 267.079V261.354H114.386V273.529H112.435L108.382 266.317L107.1 263.771H107.026C107.075 264.39 107.125 265.041 107.174 265.722C107.236 266.404 107.267 267.079 107.267 267.748V273.529H105.464ZM121.215 273.752C120.384 273.752 119.635 273.567 118.966 273.195C118.309 272.811 117.782 272.265 117.386 271.559C116.989 270.853 116.791 269.998 116.791 268.994C116.791 268.015 116.989 267.172 117.386 266.466C117.782 265.747 118.296 265.196 118.928 264.812C119.56 264.415 120.23 264.217 120.936 264.217C121.729 264.217 122.398 264.396 122.943 264.756C123.501 265.115 123.922 265.617 124.207 266.261C124.492 266.906 124.635 267.656 124.635 268.511C124.635 268.684 124.623 268.864 124.598 269.05C124.585 269.223 124.567 269.366 124.542 269.477H118.259L118.241 268.176H122.999C122.999 267.383 122.826 266.769 122.479 266.336C122.144 265.902 121.642 265.685 120.973 265.685C120.577 265.685 120.192 265.797 119.821 266.02C119.449 266.243 119.139 266.602 118.891 267.098C118.656 267.581 118.538 268.213 118.538 268.994C118.538 269.75 118.674 270.369 118.947 270.853C119.22 271.336 119.573 271.695 120.007 271.931C120.453 272.166 120.936 272.284 121.456 272.284C121.865 272.284 122.243 272.222 122.59 272.098C122.95 271.974 123.297 271.807 123.631 271.596L124.282 272.786C123.86 273.059 123.39 273.288 122.869 273.474C122.361 273.66 121.81 273.752 121.215 273.752ZM129.802 273.752C128.785 273.752 128.073 273.461 127.664 272.879C127.255 272.284 127.051 271.516 127.051 270.574V265.945H125.731V264.533L127.144 264.44L127.367 261.93H128.928V264.44H131.307V265.945H128.928V270.592C128.928 271.125 129.033 271.534 129.244 271.819C129.455 272.104 129.795 272.247 130.266 272.247C130.427 272.247 130.595 272.228 130.768 272.191C130.954 272.141 131.115 272.086 131.252 272.024L131.586 273.418C131.338 273.505 131.059 273.579 130.75 273.641C130.44 273.715 130.124 273.752 129.802 273.752ZM134.738 273.529L132.285 264.44H134.181L135.389 269.384C135.476 269.818 135.556 270.252 135.631 270.685C135.717 271.107 135.804 271.534 135.891 271.968H135.965C136.052 271.534 136.145 271.107 136.244 270.685C136.343 270.252 136.449 269.818 136.56 269.384L137.843 264.44H139.59L140.891 269.384C141.003 269.818 141.108 270.252 141.207 270.685C141.306 271.107 141.405 271.534 141.505 271.968H141.579C141.666 271.534 141.746 271.107 141.821 270.685C141.907 270.252 142 269.818 142.099 269.384L143.289 264.44H145.055L142.694 273.529H140.445L139.274 269.012C139.175 268.579 139.076 268.151 138.977 267.73C138.89 267.296 138.797 266.844 138.698 266.373H138.623C138.524 266.844 138.431 267.296 138.345 267.73C138.258 268.164 138.159 268.597 138.047 269.031L136.913 273.529H134.738ZM150.582 273.752C149.826 273.752 149.126 273.567 148.482 273.195C147.837 272.823 147.311 272.284 146.902 271.578C146.505 270.859 146.307 269.998 146.307 268.994C146.307 267.99 146.505 267.135 146.902 266.429C147.311 265.71 147.837 265.165 148.482 264.793C149.126 264.409 149.826 264.217 150.582 264.217C151.326 264.217 152.02 264.409 152.664 264.793C153.321 265.165 153.847 265.71 154.244 266.429C154.653 267.135 154.857 267.99 154.857 268.994C154.857 269.998 154.653 270.859 154.244 271.578C153.847 272.284 153.321 272.823 152.664 273.195C152.02 273.567 151.326 273.752 150.582 273.752ZM150.582 272.21C151.065 272.21 151.481 272.08 151.828 271.819C152.187 271.547 152.46 271.169 152.645 270.685C152.831 270.202 152.924 269.638 152.924 268.994C152.924 268.349 152.831 267.786 152.645 267.302C152.46 266.807 152.187 266.429 151.828 266.168C151.481 265.896 151.065 265.76 150.582 265.76C150.099 265.76 149.684 265.896 149.337 266.168C148.99 266.429 148.717 266.807 148.519 267.302C148.333 267.786 148.24 268.349 148.24 268.994C148.24 269.638 148.333 270.202 148.519 270.685C148.717 271.169 148.99 271.547 149.337 271.819C149.684 272.08 150.099 272.21 150.582 272.21ZM157.086 273.529V264.44H158.629L158.778 266.076H158.833C159.156 265.493 159.54 265.041 159.986 264.719C160.444 264.384 160.922 264.217 161.417 264.217C161.628 264.217 161.814 264.235 161.975 264.272C162.136 264.297 162.285 264.341 162.421 264.403L162.086 266.038C161.925 265.989 161.777 265.952 161.64 265.927C161.516 265.902 161.361 265.89 161.176 265.89C160.804 265.89 160.413 266.038 160.004 266.336C159.596 266.621 159.249 267.129 158.964 267.86V273.529H157.086ZM163.821 273.529V260.35H165.661V268.882H165.717L169.304 264.44H171.368L168.282 268.12L171.721 273.529H169.676L167.204 269.403L165.661 271.187V273.529H163.821Z" fill="#CFCFCF"/>
<path d="M105.464 273.529V261.354H107.416L111.468 268.548L112.751 271.113H112.825C112.788 270.493 112.738 269.83 112.676 269.124C112.614 268.418 112.583 267.736 112.583 267.079V261.354H114.386V273.529H112.435L108.382 266.317L107.1 263.771H107.026C107.075 264.39 107.125 265.041 107.174 265.722C107.236 266.404 107.267 267.079 107.267 267.748V273.529H105.464ZM121.215 273.752C120.384 273.752 119.635 273.567 118.966 273.195C118.309 272.811 117.782 272.265 117.386 271.559C116.989 270.853 116.791 269.998 116.791 268.994C116.791 268.015 116.989 267.172 117.386 266.466C117.782 265.747 118.296 265.196 118.928 264.812C119.56 264.415 120.23 264.217 120.936 264.217C121.729 264.217 122.398 264.396 122.943 264.756C123.501 265.115 123.922 265.617 124.207 266.261C124.492 266.906 124.635 267.656 124.635 268.511C124.635 268.684 124.623 268.864 124.598 269.05C124.585 269.223 124.567 269.366 124.542 269.477H118.259L118.241 268.176H122.999C122.999 267.383 122.826 266.769 122.479 266.336C122.144 265.902 121.642 265.685 120.973 265.685C120.577 265.685 120.192 265.797 119.821 266.02C119.449 266.243 119.139 266.602 118.891 267.098C118.656 267.581 118.538 268.213 118.538 268.994C118.538 269.75 118.674 270.369 118.947 270.853C119.22 271.336 119.573 271.695 120.007 271.931C120.453 272.166 120.936 272.284 121.456 272.284C121.865 272.284 122.243 272.222 122.59 272.098C122.95 271.974 123.297 271.807 123.631 271.596L124.282 272.786C123.86 273.059 123.39 273.288 122.869 273.474C122.361 273.66 121.81 273.752 121.215 273.752ZM129.802 273.752C128.785 273.752 128.073 273.461 127.664 272.879C127.255 272.284 127.051 271.516 127.051 270.574V265.945H125.731V264.533L127.144 264.44L127.367 261.93H128.928V264.44H131.307V265.945H128.928V270.592C128.928 271.125 129.033 271.534 129.244 271.819C129.455 272.104 129.795 272.247 130.266 272.247C130.427 272.247 130.595 272.228 130.768 272.191C130.954 272.141 131.115 272.086 131.252 272.024L131.586 273.418C131.338 273.505 131.059 273.579 130.75 273.641C130.44 273.715 130.124 273.752 129.802 273.752ZM134.738 273.529L132.285 264.44H134.181L135.389 269.384C135.476 269.818 135.556 270.252 135.631 270.685C135.717 271.107 135.804 271.534 135.891 271.968H135.965C136.052 271.534 136.145 271.107 136.244 270.685C136.343 270.252 136.449 269.818 136.56 269.384L137.843 264.44H139.59L140.891 269.384C141.003 269.818 141.108 270.252 141.207 270.685C141.306 271.107 141.405 271.534 141.505 271.968H141.579C141.666 271.534 141.746 271.107 141.821 270.685C141.907 270.252 142 269.818 142.099 269.384L143.289 264.44H145.055L142.694 273.529H140.445L139.274 269.012C139.175 268.579 139.076 268.151 138.977 267.73C138.89 267.296 138.797 266.844 138.698 266.373H138.623C138.524 266.844 138.431 267.296 138.345 267.73C138.258 268.164 138.159 268.597 138.047 269.031L136.913 273.529H134.738ZM150.582 273.752C149.826 273.752 149.126 273.567 148.482 273.195C147.837 272.823 147.311 272.284 146.902 271.578C146.505 270.859 146.307 269.998 146.307 268.994C146.307 267.99 146.505 267.135 146.902 266.429C147.311 265.71 147.837 265.165 148.482 264.793C149.126 264.409 149.826 264.217 150.582 264.217C151.326 264.217 152.02 264.409 152.664 264.793C153.321 265.165 153.847 265.71 154.244 266.429C154.653 267.135 154.857 267.99 154.857 268.994C154.857 269.998 154.653 270.859 154.244 271.578C153.847 272.284 153.321 272.823 152.664 273.195C152.02 273.567 151.326 273.752 150.582 273.752ZM150.582 272.21C151.065 272.21 151.481 272.08 151.828 271.819C152.187 271.547 152.46 271.169 152.645 270.685C152.831 270.202 152.924 269.638 152.924 268.994C152.924 268.349 152.831 267.786 152.645 267.302C152.46 266.807 152.187 266.429 151.828 266.168C151.481 265.896 151.065 265.76 150.582 265.76C150.099 265.76 149.684 265.896 149.337 266.168C148.99 266.429 148.717 266.807 148.519 267.302C148.333 267.786 148.24 268.349 148.24 268.994C148.24 269.638 148.333 270.202 148.519 270.685C148.717 271.169 148.99 271.547 149.337 271.819C149.684 272.08 150.099 272.21 150.582 272.21ZM157.086 273.529V264.44H158.629L158.778 266.076H158.833C159.156 265.493 159.54 265.041 159.986 264.719C160.444 264.384 160.922 264.217 161.417 264.217C161.628 264.217 161.814 264.235 161.975 264.272C162.136 264.297 162.285 264.341 162.421 264.403L162.086 266.038C161.925 265.989 161.777 265.952 161.64 265.927C161.516 265.902 161.361 265.89 161.176 265.89C160.804 265.89 160.413 266.038 160.004 266.336C159.596 266.621 159.249 267.129 158.964 267.86V273.529H157.086ZM163.821 273.529V260.35H165.661V268.882H165.717L169.304 264.44H171.368L168.282 268.12L171.721 273.529H169.676L167.204 269.403L165.661 271.187V273.529H163.821Z" fill="black" fill-opacity="0.2"/>
<path d="M191.888 273.529V262.953H188.3V261.354H197.371V262.953H193.784V273.529H191.888ZM203.096 273.752C202.266 273.752 201.516 273.567 200.847 273.195C200.19 272.811 199.664 272.265 199.267 271.559C198.871 270.853 198.672 269.998 198.672 268.994C198.672 268.015 198.871 267.172 199.267 266.466C199.664 265.747 200.178 265.196 200.81 264.812C201.442 264.415 202.111 264.217 202.817 264.217C203.611 264.217 204.28 264.396 204.825 264.756C205.383 265.115 205.804 265.617 206.089 266.261C206.374 266.906 206.517 267.656 206.517 268.511C206.517 268.684 206.504 268.864 206.479 269.05C206.467 269.223 206.448 269.366 206.424 269.477H200.141L200.122 268.176H204.881C204.881 267.383 204.707 266.769 204.36 266.336C204.026 265.902 203.524 265.685 202.855 265.685C202.458 265.685 202.074 265.797 201.702 266.02C201.33 266.243 201.021 266.602 200.773 267.098C200.537 267.581 200.42 268.213 200.42 268.994C200.42 269.75 200.556 270.369 200.829 270.853C201.101 271.336 201.454 271.695 201.888 271.931C202.334 272.166 202.817 272.284 203.338 272.284C203.747 272.284 204.125 272.222 204.472 272.098C204.831 271.974 205.178 271.807 205.513 271.596L206.163 272.786C205.742 273.059 205.271 273.288 204.751 273.474C204.243 273.66 203.691 273.752 203.096 273.752ZM211.107 273.752C210.475 273.752 209.855 273.635 209.248 273.399C208.653 273.151 208.133 272.848 207.687 272.488L208.579 271.28C208.975 271.59 209.378 271.844 209.787 272.042C210.209 272.228 210.667 272.321 211.163 272.321C211.708 272.321 212.111 272.203 212.371 271.968C212.631 271.733 212.761 271.441 212.761 271.094C212.761 270.822 212.662 270.592 212.464 270.407C212.266 270.208 212.012 270.041 211.702 269.905C211.404 269.768 211.088 269.638 210.754 269.514C210.345 269.353 209.936 269.167 209.527 268.957C209.13 268.746 208.796 268.473 208.523 268.139C208.263 267.804 208.133 267.383 208.133 266.875C208.133 266.107 208.418 265.475 208.988 264.979C209.57 264.471 210.363 264.217 211.367 264.217C211.974 264.217 212.526 264.322 213.022 264.533C213.517 264.743 213.945 264.991 214.304 265.276L213.43 266.447C213.108 266.212 212.78 266.02 212.445 265.871C212.123 265.722 211.776 265.648 211.404 265.648C210.896 265.648 210.518 265.76 210.27 265.983C210.035 266.206 209.917 266.472 209.917 266.782C209.917 267.042 210.01 267.259 210.196 267.432C210.382 267.594 210.624 267.736 210.921 267.86C211.218 267.984 211.534 268.108 211.869 268.232C212.29 268.393 212.706 268.579 213.114 268.789C213.523 269 213.864 269.279 214.137 269.626C214.409 269.96 214.546 270.413 214.546 270.983C214.546 271.491 214.409 271.956 214.137 272.377C213.877 272.798 213.492 273.133 212.984 273.381C212.476 273.629 211.85 273.752 211.107 273.752ZM219.598 273.752C218.582 273.752 217.869 273.461 217.46 272.879C217.051 272.284 216.847 271.516 216.847 270.574V265.945H215.527V264.533L216.94 264.44L217.163 261.93H218.724V264.44H221.103V265.945H218.724V270.592C218.724 271.125 218.829 271.534 219.04 271.819C219.251 272.104 219.592 272.247 220.062 272.247C220.224 272.247 220.391 272.228 220.564 272.191C220.75 272.141 220.911 272.086 221.048 272.024L221.382 273.418C221.134 273.505 220.856 273.579 220.546 273.641C220.236 273.715 219.92 273.752 219.598 273.752ZM223.066 273.529V264.44H224.609L224.758 265.704H224.813C225.235 265.295 225.687 264.948 226.17 264.663C226.654 264.365 227.205 264.217 227.825 264.217C228.791 264.217 229.498 264.527 229.944 265.146C230.39 265.766 230.613 266.652 230.613 267.804V273.529H228.735V268.046C228.735 267.253 228.611 266.689 228.364 266.354C228.128 266.007 227.738 265.834 227.193 265.834C226.759 265.834 226.375 265.939 226.04 266.15C225.718 266.361 225.352 266.67 224.943 267.079V273.529H223.066ZM237.151 273.752C236.32 273.752 235.571 273.567 234.901 273.195C234.245 272.811 233.718 272.265 233.321 271.559C232.925 270.853 232.727 269.998 232.727 268.994C232.727 268.015 232.925 267.172 233.321 266.466C233.718 265.747 234.232 265.196 234.864 264.812C235.496 264.415 236.165 264.217 236.872 264.217C237.665 264.217 238.334 264.396 238.879 264.756C239.437 265.115 239.858 265.617 240.143 266.261C240.428 266.906 240.571 267.656 240.571 268.511C240.571 268.684 240.558 268.864 240.534 269.05C240.521 269.223 240.503 269.366 240.478 269.477H234.195L234.176 268.176H238.935C238.935 267.383 238.761 266.769 238.415 266.336C238.08 265.902 237.578 265.685 236.909 265.685C236.512 265.685 236.128 265.797 235.756 266.02C235.385 266.243 235.075 266.602 234.827 267.098C234.592 267.581 234.474 268.213 234.474 268.994C234.474 269.75 234.61 270.369 234.883 270.853C235.155 271.336 235.509 271.695 235.942 271.931C236.388 272.166 236.872 272.284 237.392 272.284C237.801 272.284 238.179 272.222 238.526 272.098C238.885 271.974 239.232 271.807 239.567 271.596L240.218 272.786C239.796 273.059 239.325 273.288 238.805 273.474C238.297 273.66 237.745 273.752 237.151 273.752ZM245.737 273.752C244.721 273.752 244.009 273.461 243.6 272.879C243.191 272.284 242.986 271.516 242.986 270.574V265.945H241.667V264.533L243.079 264.44L243.302 261.93H244.864V264.44H247.243V265.945H244.864V270.592C244.864 271.125 244.969 271.534 245.18 271.819C245.39 272.104 245.731 272.247 246.202 272.247C246.363 272.247 246.531 272.228 246.704 272.191C246.89 272.141 247.051 272.086 247.187 272.024L247.522 273.418C247.274 273.505 246.995 273.579 246.685 273.641C246.376 273.715 246.06 273.752 245.737 273.752ZM247.979 276.504L252.589 260.332H253.89L249.28 276.504H247.979ZM255.817 273.529V261.354H263.011V262.953H257.713V266.373H262.193V267.972H257.713V271.931H263.197V273.529H255.817ZM270.19 273.752C269.52 273.752 268.907 273.653 268.349 273.455C267.804 273.257 267.327 272.947 266.918 272.526C266.522 272.104 266.212 271.547 265.989 270.853C265.778 270.159 265.673 269.316 265.673 268.325V261.354H267.569V268.436C267.569 269.366 267.68 270.097 267.903 270.63C268.126 271.163 268.436 271.54 268.833 271.764C269.229 271.987 269.682 272.098 270.19 272.098C270.698 272.098 271.156 271.987 271.565 271.764C271.974 271.54 272.29 271.163 272.513 270.63C272.749 270.097 272.866 269.366 272.866 268.436V261.354H274.688V268.325C274.688 269.316 274.576 270.159 274.353 270.853C274.143 271.547 273.839 272.104 273.443 272.526C273.046 272.947 272.569 273.257 272.011 273.455C271.466 273.653 270.859 273.752 270.19 273.752Z" fill="black" fill-opacity="0.8"/>
<path d="M110.204 313.685C109.188 313.685 108.271 313.444 107.453 312.96C106.635 312.465 105.985 311.746 105.501 310.804C105.03 309.862 104.795 308.728 104.795 307.402C104.795 306.411 104.931 305.525 105.204 304.744C105.489 303.964 105.879 303.301 106.375 302.755C106.883 302.198 107.472 301.776 108.141 301.491C108.81 301.206 109.529 301.064 110.297 301.064C111.053 301.064 111.722 301.219 112.305 301.529C112.887 301.826 113.364 302.179 113.736 302.588L112.714 303.815C112.404 303.48 112.051 303.214 111.654 303.016C111.27 302.817 110.83 302.718 110.334 302.718C109.628 302.718 109.002 302.904 108.457 303.276C107.924 303.648 107.503 304.18 107.193 304.874C106.895 305.568 106.747 306.392 106.747 307.347C106.747 308.313 106.889 309.15 107.174 309.856C107.459 310.55 107.868 311.089 108.401 311.473C108.934 311.845 109.56 312.031 110.278 312.031C110.836 312.031 111.332 311.913 111.766 311.678C112.212 311.442 112.614 311.126 112.974 310.73L113.996 311.919C113.513 312.477 112.955 312.911 112.323 313.221C111.704 313.53 110.997 313.685 110.204 313.685ZM115.971 313.462V304.373H117.513L117.662 306.008H117.718C118.04 305.426 118.424 304.974 118.87 304.651C119.329 304.317 119.806 304.149 120.302 304.149C120.512 304.149 120.698 304.168 120.859 304.205C121.02 304.23 121.169 304.273 121.305 304.335L120.971 305.971C120.81 305.922 120.661 305.884 120.525 305.86C120.401 305.835 120.246 305.822 120.06 305.822C119.688 305.822 119.298 305.971 118.889 306.269C118.48 306.554 118.133 307.062 117.848 307.793V313.462H115.971ZM126.497 313.685C125.667 313.685 124.917 313.499 124.248 313.128C123.591 312.743 123.065 312.198 122.668 311.492C122.271 310.785 122.073 309.93 122.073 308.927C122.073 307.948 122.271 307.105 122.668 306.399C123.065 305.68 123.579 305.128 124.211 304.744C124.843 304.348 125.512 304.149 126.218 304.149C127.011 304.149 127.681 304.329 128.226 304.689C128.784 305.048 129.205 305.55 129.49 306.194C129.775 306.839 129.917 307.588 129.917 308.443C129.917 308.617 129.905 308.797 129.88 308.982C129.868 309.156 129.849 309.298 129.824 309.41H123.542L123.523 308.109H128.282C128.282 307.316 128.108 306.702 127.761 306.269C127.427 305.835 126.925 305.618 126.256 305.618C125.859 305.618 125.475 305.729 125.103 305.953C124.731 306.176 124.421 306.535 124.174 307.031C123.938 307.514 123.82 308.146 123.82 308.927C123.82 309.683 123.957 310.302 124.229 310.785C124.502 311.269 124.855 311.628 125.289 311.864C125.735 312.099 126.218 312.217 126.739 312.217C127.148 312.217 127.526 312.155 127.873 312.031C128.232 311.907 128.579 311.74 128.914 311.529L129.564 312.719C129.143 312.991 128.672 313.221 128.152 313.406C127.643 313.592 127.092 313.685 126.497 313.685ZM135.177 313.685C134.049 313.685 133.145 313.27 132.463 312.44C131.782 311.597 131.441 310.426 131.441 308.927C131.441 307.948 131.62 307.105 131.98 306.399C132.352 305.68 132.835 305.128 133.43 304.744C134.025 304.348 134.657 304.149 135.326 304.149C135.859 304.149 136.311 304.242 136.683 304.428C137.054 304.602 137.42 304.85 137.779 305.172L137.705 303.666V300.283H139.582V313.462H138.04L137.891 312.44H137.835C137.501 312.774 137.104 313.066 136.645 313.313C136.187 313.561 135.697 313.685 135.177 313.685ZM135.623 312.124C136.007 312.124 136.367 312.037 136.701 311.864C137.048 311.678 137.383 311.393 137.705 311.009V306.547C137.37 306.238 137.036 306.021 136.701 305.897C136.379 305.773 136.044 305.711 135.697 305.711C135.264 305.711 134.873 305.841 134.526 306.101C134.179 306.349 133.901 306.715 133.69 307.198C133.479 307.681 133.374 308.251 133.374 308.908C133.374 309.937 133.566 310.73 133.95 311.287C134.347 311.845 134.904 312.124 135.623 312.124ZM142.437 313.462V304.373H144.314V313.462H142.437ZM143.385 302.662C143.063 302.662 142.79 302.557 142.567 302.346C142.344 302.123 142.233 301.851 142.233 301.529C142.233 301.206 142.344 300.94 142.567 300.729C142.79 300.519 143.063 300.413 143.385 300.413C143.72 300.413 143.992 300.519 144.203 300.729C144.426 300.94 144.537 301.206 144.537 301.529C144.537 301.851 144.426 302.123 144.203 302.346C143.992 302.557 143.72 302.662 143.385 302.662ZM150.223 313.685C149.207 313.685 148.495 313.394 148.086 312.812C147.677 312.217 147.472 311.448 147.472 310.507V305.878H146.152V304.465L147.565 304.373L147.788 301.863H149.35V304.373H151.729V305.878H149.35V310.525C149.35 311.058 149.455 311.467 149.666 311.752C149.876 312.037 150.217 312.18 150.688 312.18C150.849 312.18 151.016 312.161 151.19 312.124C151.376 312.074 151.537 312.018 151.673 311.957L152.008 313.351C151.76 313.437 151.481 313.512 151.171 313.574C150.861 313.648 150.545 313.685 150.223 313.685ZM162.041 313.685C161.372 313.685 160.759 313.586 160.201 313.388C159.656 313.19 159.179 312.88 158.77 312.458C158.373 312.037 158.063 311.479 157.84 310.785C157.63 310.091 157.524 309.249 157.524 308.257V301.287H159.42V308.369C159.42 309.298 159.532 310.03 159.755 310.562C159.978 311.095 160.288 311.473 160.684 311.696C161.081 311.919 161.533 312.031 162.041 312.031C162.549 312.031 163.008 311.919 163.417 311.696C163.826 311.473 164.142 311.095 164.365 310.562C164.6 310.03 164.718 309.298 164.718 308.369V301.287H166.54V308.257C166.54 309.249 166.428 310.091 166.205 310.785C165.994 311.479 165.691 312.037 165.294 312.458C164.898 312.88 164.421 313.19 163.863 313.388C163.318 313.586 162.711 313.685 162.041 313.685ZM171.993 313.685C171.361 313.685 170.741 313.567 170.134 313.332C169.539 313.084 169.019 312.781 168.573 312.421L169.465 311.213C169.861 311.523 170.264 311.777 170.673 311.975C171.094 312.161 171.553 312.254 172.049 312.254C172.594 312.254 172.997 312.136 173.257 311.901C173.517 311.665 173.647 311.374 173.647 311.027C173.647 310.754 173.548 310.525 173.35 310.339C173.152 310.141 172.898 309.974 172.588 309.837C172.29 309.701 171.974 309.571 171.64 309.447C171.231 309.286 170.822 309.1 170.413 308.889C170.016 308.679 169.682 308.406 169.409 308.072C169.149 307.737 169.019 307.316 169.019 306.808C169.019 306.039 169.304 305.407 169.874 304.912C170.456 304.403 171.249 304.149 172.253 304.149C172.86 304.149 173.412 304.255 173.907 304.465C174.403 304.676 174.831 304.924 175.19 305.209L174.316 306.38C173.994 306.145 173.666 305.953 173.331 305.804C173.009 305.655 172.662 305.581 172.29 305.581C171.782 305.581 171.404 305.692 171.156 305.915C170.921 306.138 170.803 306.405 170.803 306.715C170.803 306.975 170.896 307.192 171.082 307.365C171.268 307.526 171.51 307.669 171.807 307.793C172.104 307.917 172.42 308.041 172.755 308.165C173.176 308.326 173.591 308.511 174 308.722C174.409 308.933 174.75 309.212 175.023 309.559C175.295 309.893 175.432 310.346 175.432 310.916C175.432 311.424 175.295 311.888 175.023 312.31C174.763 312.731 174.378 313.066 173.87 313.313C173.362 313.561 172.736 313.685 171.993 313.685ZM179.591 313.685C179.071 313.685 178.606 313.58 178.197 313.369C177.801 313.146 177.485 312.843 177.249 312.458C177.026 312.062 176.915 311.597 176.915 311.064C176.915 310.085 177.348 309.329 178.216 308.797C179.083 308.264 180.465 307.892 182.361 307.681C182.361 307.334 182.305 307.006 182.194 306.696C182.095 306.386 181.915 306.138 181.655 305.953C181.407 305.767 181.06 305.674 180.614 305.674C180.13 305.674 179.666 305.767 179.22 305.953C178.786 306.138 178.377 306.355 177.993 306.603L177.286 305.339C177.596 305.141 177.943 304.955 178.327 304.781C178.712 304.596 179.12 304.447 179.554 304.335C180 304.211 180.465 304.149 180.948 304.149C181.692 304.149 182.305 304.304 182.789 304.614C183.284 304.924 183.65 305.364 183.885 305.934C184.121 306.504 184.238 307.192 184.238 307.997V313.462H182.696L182.547 312.421H182.491C182.082 312.768 181.636 313.066 181.153 313.313C180.67 313.561 180.149 313.685 179.591 313.685ZM180.168 312.198C180.564 312.198 180.936 312.105 181.283 311.919C181.63 311.733 181.989 311.467 182.361 311.12V308.871C181.456 308.982 180.738 309.131 180.205 309.317C179.684 309.503 179.306 309.732 179.071 310.005C178.848 310.277 178.736 310.581 178.736 310.916C178.736 311.362 178.873 311.69 179.145 311.901C179.418 312.099 179.759 312.198 180.168 312.198ZM190.052 317.552C189.321 317.552 188.67 317.459 188.1 317.273C187.53 317.099 187.084 316.833 186.762 316.473C186.439 316.126 186.278 315.687 186.278 315.154C186.278 314.77 186.396 314.404 186.632 314.057C186.867 313.722 187.189 313.425 187.598 313.165V313.09C187.375 312.929 187.183 312.731 187.022 312.496C186.861 312.248 186.78 311.944 186.78 311.585C186.78 311.213 186.886 310.885 187.096 310.6C187.307 310.302 187.536 310.067 187.784 309.893V309.819C187.487 309.583 187.214 309.255 186.966 308.834C186.718 308.412 186.594 307.935 186.594 307.402C186.594 306.721 186.755 306.138 187.078 305.655C187.412 305.172 187.84 304.8 188.36 304.54C188.893 304.28 189.476 304.149 190.108 304.149C190.355 304.149 190.591 304.174 190.814 304.224C191.049 304.261 191.254 304.311 191.427 304.373H194.643V305.785H192.896C193.069 305.971 193.212 306.213 193.323 306.51C193.447 306.795 193.509 307.111 193.509 307.458C193.509 308.115 193.354 308.679 193.044 309.15C192.747 309.608 192.338 309.961 191.818 310.209C191.31 310.457 190.74 310.581 190.108 310.581C189.897 310.581 189.68 310.556 189.457 310.507C189.246 310.457 189.036 310.389 188.825 310.302C188.676 310.426 188.552 310.562 188.453 310.711C188.366 310.86 188.323 311.046 188.323 311.269C188.323 311.541 188.435 311.758 188.658 311.919C188.881 312.08 189.277 312.161 189.847 312.161H191.52C192.598 312.161 193.41 312.341 193.955 312.7C194.513 313.047 194.792 313.605 194.792 314.373C194.792 314.955 194.594 315.488 194.197 315.972C193.813 316.455 193.268 316.839 192.561 317.124C191.855 317.409 191.018 317.552 190.052 317.552ZM190.331 316.306C190.863 316.306 191.322 316.232 191.706 316.083C192.103 315.934 192.412 315.73 192.636 315.47C192.859 315.222 192.97 314.955 192.97 314.67C192.97 314.286 192.821 314.02 192.524 313.871C192.239 313.735 191.824 313.667 191.279 313.667H189.884C189.674 313.667 189.463 313.654 189.252 313.629C189.054 313.605 188.862 313.574 188.676 313.537C188.391 313.735 188.187 313.945 188.063 314.169C187.939 314.404 187.877 314.639 187.877 314.875C187.877 315.321 188.094 315.668 188.528 315.916C188.974 316.176 189.575 316.306 190.331 316.306ZM190.108 309.373C190.43 309.373 190.721 309.298 190.981 309.15C191.241 308.989 191.446 308.759 191.595 308.462C191.756 308.165 191.836 307.811 191.836 307.402C191.836 306.993 191.756 306.646 191.595 306.361C191.446 306.076 191.241 305.86 190.981 305.711C190.721 305.55 190.43 305.469 190.108 305.469C189.624 305.469 189.215 305.637 188.881 305.971C188.546 306.306 188.379 306.783 188.379 307.402C188.379 307.811 188.453 308.165 188.602 308.462C188.763 308.759 188.974 308.989 189.234 309.15C189.494 309.298 189.785 309.373 190.108 309.373ZM200.251 313.685C199.421 313.685 198.671 313.499 198.002 313.128C197.345 312.743 196.818 312.198 196.422 311.492C196.025 310.785 195.827 309.93 195.827 308.927C195.827 307.948 196.025 307.105 196.422 306.399C196.818 305.68 197.333 305.128 197.965 304.744C198.597 304.348 199.266 304.149 199.972 304.149C200.765 304.149 201.435 304.329 201.98 304.689C202.537 305.048 202.959 305.55 203.244 306.194C203.529 306.839 203.671 307.588 203.671 308.443C203.671 308.617 203.659 308.797 203.634 308.982C203.622 309.156 203.603 309.298 203.578 309.41H197.296L197.277 308.109H202.036C202.036 307.316 201.862 306.702 201.515 306.269C201.18 305.835 200.679 305.618 200.009 305.618C199.613 305.618 199.229 305.729 198.857 305.953C198.485 306.176 198.175 306.535 197.928 307.031C197.692 307.514 197.574 308.146 197.574 308.927C197.574 309.683 197.711 310.302 197.983 310.785C198.256 311.269 198.609 311.628 199.043 311.864C199.489 312.099 199.972 312.217 200.493 312.217C200.902 312.217 201.28 312.155 201.627 312.031C201.986 311.907 202.333 311.74 202.668 311.529L203.318 312.719C202.897 312.991 202.426 313.221 201.905 313.406C201.397 313.592 200.846 313.685 200.251 313.685Z" fill="#CFCFCF"/>
<path d="M110.204 313.685C109.188 313.685 108.271 313.444 107.453 312.96C106.635 312.465 105.985 311.746 105.501 310.804C105.03 309.862 104.795 308.728 104.795 307.402C104.795 306.411 104.931 305.525 105.204 304.744C105.489 303.964 105.879 303.301 106.375 302.755C106.883 302.198 107.472 301.776 108.141 301.491C108.81 301.206 109.529 301.064 110.297 301.064C111.053 301.064 111.722 301.219 112.305 301.529C112.887 301.826 113.364 302.179 113.736 302.588L112.714 303.815C112.404 303.48 112.051 303.214 111.654 303.016C111.27 302.817 110.83 302.718 110.334 302.718C109.628 302.718 109.002 302.904 108.457 303.276C107.924 303.648 107.503 304.18 107.193 304.874C106.895 305.568 106.747 306.392 106.747 307.347C106.747 308.313 106.889 309.15 107.174 309.856C107.459 310.55 107.868 311.089 108.401 311.473C108.934 311.845 109.56 312.031 110.278 312.031C110.836 312.031 111.332 311.913 111.766 311.678C112.212 311.442 112.614 311.126 112.974 310.73L113.996 311.919C113.513 312.477 112.955 312.911 112.323 313.221C111.704 313.53 110.997 313.685 110.204 313.685ZM115.971 313.462V304.373H117.513L117.662 306.008H117.718C118.04 305.426 118.424 304.974 118.87 304.651C119.329 304.317 119.806 304.149 120.302 304.149C120.512 304.149 120.698 304.168 120.859 304.205C121.02 304.23 121.169 304.273 121.305 304.335L120.971 305.971C120.81 305.922 120.661 305.884 120.525 305.86C120.401 305.835 120.246 305.822 120.06 305.822C119.688 305.822 119.298 305.971 118.889 306.269C118.48 306.554 118.133 307.062 117.848 307.793V313.462H115.971ZM126.497 313.685C125.667 313.685 124.917 313.499 124.248 313.128C123.591 312.743 123.065 312.198 122.668 311.492C122.271 310.785 122.073 309.93 122.073 308.927C122.073 307.948 122.271 307.105 122.668 306.399C123.065 305.68 123.579 305.128 124.211 304.744C124.843 304.348 125.512 304.149 126.218 304.149C127.011 304.149 127.681 304.329 128.226 304.689C128.784 305.048 129.205 305.55 129.49 306.194C129.775 306.839 129.917 307.588 129.917 308.443C129.917 308.617 129.905 308.797 129.88 308.982C129.868 309.156 129.849 309.298 129.824 309.41H123.542L123.523 308.109H128.282C128.282 307.316 128.108 306.702 127.761 306.269C127.427 305.835 126.925 305.618 126.256 305.618C125.859 305.618 125.475 305.729 125.103 305.953C124.731 306.176 124.421 306.535 124.174 307.031C123.938 307.514 123.82 308.146 123.82 308.927C123.82 309.683 123.957 310.302 124.229 310.785C124.502 311.269 124.855 311.628 125.289 311.864C125.735 312.099 126.218 312.217 126.739 312.217C127.148 312.217 127.526 312.155 127.873 312.031C128.232 311.907 128.579 311.74 128.914 311.529L129.564 312.719C129.143 312.991 128.672 313.221 128.152 313.406C127.643 313.592 127.092 313.685 126.497 313.685ZM135.177 313.685C134.049 313.685 133.145 313.27 132.463 312.44C131.782 311.597 131.441 310.426 131.441 308.927C131.441 307.948 131.62 307.105 131.98 306.399C132.352 305.68 132.835 305.128 133.43 304.744C134.025 304.348 134.657 304.149 135.326 304.149C135.859 304.149 136.311 304.242 136.683 304.428C137.054 304.602 137.42 304.85 137.779 305.172L137.705 303.666V300.283H139.582V313.462H138.04L137.891 312.44H137.835C137.501 312.774 137.104 313.066 136.645 313.313C136.187 313.561 135.697 313.685 135.177 313.685ZM135.623 312.124C136.007 312.124 136.367 312.037 136.701 311.864C137.048 311.678 137.383 311.393 137.705 311.009V306.547C137.37 306.238 137.036 306.021 136.701 305.897C136.379 305.773 136.044 305.711 135.697 305.711C135.264 305.711 134.873 305.841 134.526 306.101C134.179 306.349 133.901 306.715 133.69 307.198C133.479 307.681 133.374 308.251 133.374 308.908C133.374 309.937 133.566 310.73 133.95 311.287C134.347 311.845 134.904 312.124 135.623 312.124ZM142.437 313.462V304.373H144.314V313.462H142.437ZM143.385 302.662C143.063 302.662 142.79 302.557 142.567 302.346C142.344 302.123 142.233 301.851 142.233 301.529C142.233 301.206 142.344 300.94 142.567 300.729C142.79 300.519 143.063 300.413 143.385 300.413C143.72 300.413 143.992 300.519 144.203 300.729C144.426 300.94 144.537 301.206 144.537 301.529C144.537 301.851 144.426 302.123 144.203 302.346C143.992 302.557 143.72 302.662 143.385 302.662ZM150.223 313.685C149.207 313.685 148.495 313.394 148.086 312.812C147.677 312.217 147.472 311.448 147.472 310.507V305.878H146.152V304.465L147.565 304.373L147.788 301.863H149.35V304.373H151.729V305.878H149.35V310.525C149.35 311.058 149.455 311.467 149.666 311.752C149.876 312.037 150.217 312.18 150.688 312.18C150.849 312.18 151.016 312.161 151.19 312.124C151.376 312.074 151.537 312.018 151.673 311.957L152.008 313.351C151.76 313.437 151.481 313.512 151.171 313.574C150.861 313.648 150.545 313.685 150.223 313.685ZM162.041 313.685C161.372 313.685 160.759 313.586 160.201 313.388C159.656 313.19 159.179 312.88 158.77 312.458C158.373 312.037 158.063 311.479 157.84 310.785C157.63 310.091 157.524 309.249 157.524 308.257V301.287H159.42V308.369C159.42 309.298 159.532 310.03 159.755 310.562C159.978 311.095 160.288 311.473 160.684 311.696C161.081 311.919 161.533 312.031 162.041 312.031C162.549 312.031 163.008 311.919 163.417 311.696C163.826 311.473 164.142 311.095 164.365 310.562C164.6 310.03 164.718 309.298 164.718 308.369V301.287H166.54V308.257C166.54 309.249 166.428 310.091 166.205 310.785C165.994 311.479 165.691 312.037 165.294 312.458C164.898 312.88 164.421 313.19 163.863 313.388C163.318 313.586 162.711 313.685 162.041 313.685ZM171.993 313.685C171.361 313.685 170.741 313.567 170.134 313.332C169.539 313.084 169.019 312.781 168.573 312.421L169.465 311.213C169.861 311.523 170.264 311.777 170.673 311.975C171.094 312.161 171.553 312.254 172.049 312.254C172.594 312.254 172.997 312.136 173.257 311.901C173.517 311.665 173.647 311.374 173.647 311.027C173.647 310.754 173.548 310.525 173.35 310.339C173.152 310.141 172.898 309.974 172.588 309.837C172.29 309.701 171.974 309.571 171.64 309.447C171.231 309.286 170.822 309.1 170.413 308.889C170.016 308.679 169.682 308.406 169.409 308.072C169.149 307.737 169.019 307.316 169.019 306.808C169.019 306.039 169.304 305.407 169.874 304.912C170.456 304.403 171.249 304.149 172.253 304.149C172.86 304.149 173.412 304.255 173.907 304.465C174.403 304.676 174.831 304.924 175.19 305.209L174.316 306.38C173.994 306.145 173.666 305.953 173.331 305.804C173.009 305.655 172.662 305.581 172.29 305.581C171.782 305.581 171.404 305.692 171.156 305.915C170.921 306.138 170.803 306.405 170.803 306.715C170.803 306.975 170.896 307.192 171.082 307.365C171.268 307.526 171.51 307.669 171.807 307.793C172.104 307.917 172.42 308.041 172.755 308.165C173.176 308.326 173.591 308.511 174 308.722C174.409 308.933 174.75 309.212 175.023 309.559C175.295 309.893 175.432 310.346 175.432 310.916C175.432 311.424 175.295 311.888 175.023 312.31C174.763 312.731 174.378 313.066 173.87 313.313C173.362 313.561 172.736 313.685 171.993 313.685ZM179.591 313.685C179.071 313.685 178.606 313.58 178.197 313.369C177.801 313.146 177.485 312.843 177.249 312.458C177.026 312.062 176.915 311.597 176.915 311.064C176.915 310.085 177.348 309.329 178.216 308.797C179.083 308.264 180.465 307.892 182.361 307.681C182.361 307.334 182.305 307.006 182.194 306.696C182.095 306.386 181.915 306.138 181.655 305.953C181.407 305.767 181.06 305.674 180.614 305.674C180.13 305.674 179.666 305.767 179.22 305.953C178.786 306.138 178.377 306.355 177.993 306.603L177.286 305.339C177.596 305.141 177.943 304.955 178.327 304.781C178.712 304.596 179.12 304.447 179.554 304.335C180 304.211 180.465 304.149 180.948 304.149C181.692 304.149 182.305 304.304 182.789 304.614C183.284 304.924 183.65 305.364 183.885 305.934C184.121 306.504 184.238 307.192 184.238 307.997V313.462H182.696L182.547 312.421H182.491C182.082 312.768 181.636 313.066 181.153 313.313C180.67 313.561 180.149 313.685 179.591 313.685ZM180.168 312.198C180.564 312.198 180.936 312.105 181.283 311.919C181.63 311.733 181.989 311.467 182.361 311.12V308.871C181.456 308.982 180.738 309.131 180.205 309.317C179.684 309.503 179.306 309.732 179.071 310.005C178.848 310.277 178.736 310.581 178.736 310.916C178.736 311.362 178.873 311.69 179.145 311.901C179.418 312.099 179.759 312.198 180.168 312.198ZM190.052 317.552C189.321 317.552 188.67 317.459 188.1 317.273C187.53 317.099 187.084 316.833 186.762 316.473C186.439 316.126 186.278 315.687 186.278 315.154C186.278 314.77 186.396 314.404 186.632 314.057C186.867 313.722 187.189 313.425 187.598 313.165V313.09C187.375 312.929 187.183 312.731 187.022 312.496C186.861 312.248 186.78 311.944 186.78 311.585C186.78 311.213 186.886 310.885 187.096 310.6C187.307 310.302 187.536 310.067 187.784 309.893V309.819C187.487 309.583 187.214 309.255 186.966 308.834C186.718 308.412 186.594 307.935 186.594 307.402C186.594 306.721 186.755 306.138 187.078 305.655C187.412 305.172 187.84 304.8 188.36 304.54C188.893 304.28 189.476 304.149 190.108 304.149C190.355 304.149 190.591 304.174 190.814 304.224C191.049 304.261 191.254 304.311 191.427 304.373H194.643V305.785H192.896C193.069 305.971 193.212 306.213 193.323 306.51C193.447 306.795 193.509 307.111 193.509 307.458C193.509 308.115 193.354 308.679 193.044 309.15C192.747 309.608 192.338 309.961 191.818 310.209C191.31 310.457 190.74 310.581 190.108 310.581C189.897 310.581 189.68 310.556 189.457 310.507C189.246 310.457 189.036 310.389 188.825 310.302C188.676 310.426 188.552 310.562 188.453 310.711C188.366 310.86 188.323 311.046 188.323 311.269C188.323 311.541 188.435 311.758 188.658 311.919C188.881 312.08 189.277 312.161 189.847 312.161H191.52C192.598 312.161 193.41 312.341 193.955 312.7C194.513 313.047 194.792 313.605 194.792 314.373C194.792 314.955 194.594 315.488 194.197 315.972C193.813 316.455 193.268 316.839 192.561 317.124C191.855 317.409 191.018 317.552 190.052 317.552ZM190.331 316.306C190.863 316.306 191.322 316.232 191.706 316.083C192.103 315.934 192.412 315.73 192.636 315.47C192.859 315.222 192.97 314.955 192.97 314.67C192.97 314.286 192.821 314.02 192.524 313.871C192.239 313.735 191.824 313.667 191.279 313.667H189.884C189.674 313.667 189.463 313.654 189.252 313.629C189.054 313.605 188.862 313.574 188.676 313.537C188.391 313.735 188.187 313.945 188.063 314.169C187.939 314.404 187.877 314.639 187.877 314.875C187.877 315.321 188.094 315.668 188.528 315.916C188.974 316.176 189.575 316.306 190.331 316.306ZM190.108 309.373C190.43 309.373 190.721 309.298 190.981 309.15C191.241 308.989 191.446 308.759 191.595 308.462C191.756 308.165 191.836 307.811 191.836 307.402C191.836 306.993 191.756 306.646 191.595 306.361C191.446 306.076 191.241 305.86 190.981 305.711C190.721 305.55 190.43 305.469 190.108 305.469C189.624 305.469 189.215 305.637 188.881 305.971C188.546 306.306 188.379 306.783 188.379 307.402C188.379 307.811 188.453 308.165 188.602 308.462C188.763 308.759 188.974 308.989 189.234 309.15C189.494 309.298 189.785 309.373 190.108 309.373ZM200.251 313.685C199.421 313.685 198.671 313.499 198.002 313.128C197.345 312.743 196.818 312.198 196.422 311.492C196.025 310.785 195.827 309.93 195.827 308.927C195.827 307.948 196.025 307.105 196.422 306.399C196.818 305.68 197.333 305.128 197.965 304.744C198.597 304.348 199.266 304.149 199.972 304.149C200.765 304.149 201.435 304.329 201.98 304.689C202.537 305.048 202.959 305.55 203.244 306.194C203.529 306.839 203.671 307.588 203.671 308.443C203.671 308.617 203.659 308.797 203.634 308.982C203.622 309.156 203.603 309.298 203.578 309.41H197.296L197.277 308.109H202.036C202.036 307.316 201.862 306.702 201.515 306.269C201.18 305.835 200.679 305.618 200.009 305.618C199.613 305.618 199.229 305.729 198.857 305.953C198.485 306.176 198.175 306.535 197.928 307.031C197.692 307.514 197.574 308.146 197.574 308.927C197.574 309.683 197.711 310.302 197.983 310.785C198.256 311.269 198.609 311.628 199.043 311.864C199.489 312.099 199.972 312.217 200.493 312.217C200.902 312.217 201.28 312.155 201.627 312.031C201.986 311.907 202.333 311.74 202.668 311.529L203.318 312.719C202.897 312.991 202.426 313.221 201.905 313.406C201.397 313.592 200.846 313.685 200.251 313.685Z" fill="black" fill-opacity="0.2"/>
<path d="M224.888 313.462V302.885H221.3V301.287H230.371V302.885H226.784V313.462H224.888ZM236.096 313.685C235.266 313.685 234.516 313.499 233.847 313.128C233.19 312.743 232.664 312.198 232.267 311.492C231.871 310.785 231.672 309.93 231.672 308.927C231.672 307.948 231.871 307.105 232.267 306.399C232.664 305.68 233.178 305.128 233.81 304.744C234.442 304.348 235.111 304.149 235.817 304.149C236.611 304.149 237.28 304.329 237.825 304.689C238.383 305.048 238.804 305.55 239.089 306.194C239.374 306.839 239.517 307.588 239.517 308.443C239.517 308.617 239.504 308.797 239.479 308.982C239.467 309.156 239.448 309.298 239.424 309.41H233.141L233.122 308.109H237.881C237.881 307.316 237.707 306.702 237.36 306.269C237.026 305.835 236.524 305.618 235.855 305.618C235.458 305.618 235.074 305.729 234.702 305.953C234.33 306.176 234.021 306.535 233.773 307.031C233.537 307.514 233.42 308.146 233.42 308.927C233.42 309.683 233.556 310.302 233.829 310.785C234.101 311.269 234.454 311.628 234.888 311.864C235.334 312.099 235.817 312.217 236.338 312.217C236.747 312.217 237.125 312.155 237.472 312.031C237.831 311.907 238.178 311.74 238.513 311.529L239.163 312.719C238.742 312.991 238.271 313.221 237.751 313.406C237.243 313.592 236.691 313.685 236.096 313.685ZM244.107 313.685C243.475 313.685 242.855 313.567 242.248 313.332C241.653 313.084 241.133 312.781 240.687 312.421L241.579 311.213C241.975 311.523 242.378 311.777 242.787 311.975C243.209 312.161 243.667 312.254 244.163 312.254C244.708 312.254 245.111 312.136 245.371 311.901C245.631 311.665 245.761 311.374 245.761 311.027C245.761 310.754 245.662 310.525 245.464 310.339C245.266 310.141 245.012 309.974 244.702 309.837C244.404 309.701 244.088 309.571 243.754 309.447C243.345 309.286 242.936 309.1 242.527 308.889C242.13 308.679 241.796 308.406 241.523 308.072C241.263 307.737 241.133 307.316 241.133 306.808C241.133 306.039 241.418 305.407 241.988 304.912C242.57 304.403 243.363 304.149 244.367 304.149C244.974 304.149 245.526 304.255 246.022 304.465C246.517 304.676 246.945 304.924 247.304 305.209L246.43 306.38C246.108 306.145 245.78 305.953 245.445 305.804C245.123 305.655 244.776 305.581 244.404 305.581C243.896 305.581 243.518 305.692 243.27 305.915C243.035 306.138 242.917 306.405 242.917 306.715C242.917 306.975 243.01 307.192 243.196 307.365C243.382 307.526 243.624 307.669 243.921 307.793C244.218 307.917 244.534 308.041 244.869 308.165C245.29 308.326 245.706 308.511 246.114 308.722C246.523 308.933 246.864 309.212 247.137 309.559C247.409 309.893 247.546 310.346 247.546 310.916C247.546 311.424 247.409 311.888 247.137 312.31C246.877 312.731 246.492 313.066 245.984 313.313C245.476 313.561 244.85 313.685 244.107 313.685ZM252.598 313.685C251.582 313.685 250.869 313.394 250.46 312.812C250.051 312.217 249.847 311.448 249.847 310.507V305.878H248.527V304.465L249.94 304.373L250.163 301.863H251.724V304.373H254.103V305.878H251.724V310.525C251.724 311.058 251.829 311.467 252.04 311.752C252.251 312.037 252.592 312.18 253.062 312.18C253.224 312.18 253.391 312.161 253.564 312.124C253.75 312.074 253.911 312.018 254.048 311.957L254.382 313.351C254.134 313.437 253.856 313.512 253.546 313.574C253.236 313.648 252.92 313.685 252.598 313.685ZM256.066 313.462V304.373H257.609L257.758 305.637H257.813C258.235 305.228 258.687 304.881 259.17 304.596C259.654 304.298 260.205 304.149 260.825 304.149C261.791 304.149 262.498 304.459 262.944 305.079C263.39 305.698 263.613 306.585 263.613 307.737V313.462H261.735V307.979C261.735 307.186 261.611 306.622 261.364 306.287C261.128 305.94 260.738 305.767 260.193 305.767C259.759 305.767 259.375 305.872 259.04 306.083C258.718 306.293 258.352 306.603 257.943 307.012V313.462H256.066ZM270.151 313.685C269.32 313.685 268.571 313.499 267.901 313.128C267.245 312.743 266.718 312.198 266.321 311.492C265.925 310.785 265.727 309.93 265.727 308.927C265.727 307.948 265.925 307.105 266.321 306.399C266.718 305.68 267.232 305.128 267.864 304.744C268.496 304.348 269.165 304.149 269.872 304.149C270.665 304.149 271.334 304.329 271.879 304.689C272.437 305.048 272.858 305.55 273.143 306.194C273.428 306.839 273.571 307.588 273.571 308.443C273.571 308.617 273.558 308.797 273.534 308.982C273.521 309.156 273.503 309.298 273.478 309.41H267.195L267.176 308.109H271.935C271.935 307.316 271.761 306.702 271.415 306.269C271.08 305.835 270.578 305.618 269.909 305.618C269.512 305.618 269.128 305.729 268.756 305.953C268.385 306.176 268.075 306.535 267.827 307.031C267.592 307.514 267.474 308.146 267.474 308.927C267.474 309.683 267.61 310.302 267.883 310.785C268.155 311.269 268.509 311.628 268.942 311.864C269.388 312.099 269.872 312.217 270.392 312.217C270.801 312.217 271.179 312.155 271.526 312.031C271.885 311.907 272.232 311.74 272.567 311.529L273.218 312.719C272.796 312.991 272.325 313.221 271.805 313.406C271.297 313.592 270.745 313.685 270.151 313.685ZM278.737 313.685C277.721 313.685 277.009 313.394 276.6 312.812C276.191 312.217 275.986 311.448 275.986 310.507V305.878H274.667V304.465L276.079 304.373L276.302 301.863H277.864V304.373H280.243V305.878H277.864V310.525C277.864 311.058 277.969 311.467 278.18 311.752C278.39 312.037 278.731 312.18 279.202 312.18C279.363 312.18 279.531 312.161 279.704 312.124C279.89 312.074 280.051 312.018 280.187 311.957L280.522 313.351C280.274 313.437 279.995 313.512 279.685 313.574C279.376 313.648 279.06 313.685 278.737 313.685ZM280.979 316.436L285.589 300.265H286.89L282.28 316.436H280.979ZM288.817 313.462V301.287H296.011V302.885H290.713V306.306H295.193V307.904H290.713V311.864H296.197V313.462H288.817ZM303.19 313.685C302.52 313.685 301.907 313.586 301.349 313.388C300.804 313.19 300.327 312.88 299.918 312.458C299.522 312.037 299.212 311.479 298.989 310.785C298.778 310.091 298.673 309.249 298.673 308.257V301.287H300.569V308.369C300.569 309.298 300.68 310.03 300.903 310.562C301.126 311.095 301.436 311.473 301.833 311.696C302.229 311.919 302.682 312.031 303.19 312.031C303.698 312.031 304.156 311.919 304.565 311.696C304.974 311.473 305.29 311.095 305.513 310.562C305.749 310.03 305.866 309.298 305.866 308.369V301.287H307.688V308.257C307.688 309.249 307.576 310.091 307.353 310.785C307.143 311.479 306.839 312.037 306.443 312.458C306.046 312.88 305.569 313.19 305.011 313.388C304.466 313.586 303.859 313.685 303.19 313.685Z" fill="black" fill-opacity="0.8"/>
<path d="M105.464 353.395V341.22H109.145C110.049 341.22 110.849 341.337 111.542 341.573C112.236 341.796 112.782 342.18 113.178 342.725C113.587 343.258 113.792 343.983 113.792 344.9C113.792 345.78 113.593 346.505 113.197 347.075C112.8 347.645 112.255 348.073 111.561 348.358C110.88 348.63 110.099 348.767 109.219 348.767H107.36V353.395H105.464ZM107.36 347.242H109.033C110.012 347.242 110.737 347.05 111.208 346.666C111.679 346.282 111.914 345.693 111.914 344.9C111.914 344.082 111.666 343.518 111.171 343.209C110.675 342.899 109.938 342.744 108.959 342.744H107.36V347.242ZM117.866 353.618C117.408 353.618 117.042 353.525 116.769 353.339C116.497 353.153 116.299 352.887 116.175 352.54C116.051 352.193 115.989 351.772 115.989 351.276V340.216H117.866V351.387C117.866 351.635 117.909 351.815 117.996 351.927C118.095 352.026 118.201 352.075 118.312 352.075C118.362 352.075 118.405 352.075 118.442 352.075C118.492 352.063 118.56 352.05 118.647 352.038L118.888 353.451C118.765 353.5 118.622 353.538 118.461 353.562C118.3 353.599 118.102 353.618 117.866 353.618ZM123.046 353.618C122.526 353.618 122.061 353.513 121.652 353.302C121.255 353.079 120.939 352.775 120.704 352.391C120.481 351.995 120.369 351.53 120.369 350.997C120.369 350.018 120.803 349.262 121.671 348.729C122.538 348.197 123.92 347.825 125.816 347.614C125.816 347.267 125.76 346.939 125.648 346.629C125.549 346.319 125.37 346.071 125.109 345.885C124.862 345.699 124.515 345.607 124.068 345.607C123.585 345.607 123.12 345.699 122.674 345.885C122.241 346.071 121.832 346.288 121.448 346.536L120.741 345.272C121.051 345.074 121.398 344.888 121.782 344.714C122.166 344.528 122.575 344.38 123.009 344.268C123.455 344.144 123.92 344.082 124.403 344.082C125.147 344.082 125.76 344.237 126.243 344.547C126.739 344.857 127.105 345.297 127.34 345.867C127.575 346.437 127.693 347.125 127.693 347.93V353.395H126.15L126.002 352.354H125.946C125.537 352.701 125.091 352.998 124.608 353.246C124.124 353.494 123.604 353.618 123.046 353.618ZM123.622 352.131C124.019 352.131 124.391 352.038 124.738 351.852C125.085 351.666 125.444 351.4 125.816 351.053V348.804C124.911 348.915 124.192 349.064 123.66 349.25C123.139 349.436 122.761 349.665 122.526 349.938C122.303 350.21 122.191 350.514 122.191 350.848C122.191 351.295 122.327 351.623 122.6 351.834C122.873 352.032 123.213 352.131 123.622 352.131ZM130.384 353.395V344.305H131.927L132.075 345.569H132.131C132.552 345.16 133.005 344.813 133.488 344.528C133.971 344.231 134.523 344.082 135.142 344.082C136.109 344.082 136.815 344.392 137.261 345.012C137.707 345.631 137.931 346.517 137.931 347.67V353.395H136.053V347.911C136.053 347.118 135.929 346.555 135.681 346.22C135.446 345.873 135.056 345.699 134.51 345.699C134.077 345.699 133.692 345.805 133.358 346.015C133.036 346.226 132.67 346.536 132.261 346.945V353.395H130.384Z" fill="#CFCFCF"/>
<path d="M105.464 353.395V341.22H109.145C110.049 341.22 110.849 341.337 111.542 341.573C112.236 341.796 112.782 342.18 113.178 342.725C113.587 343.258 113.792 343.983 113.792 344.9C113.792 345.78 113.593 346.505 113.197 347.075C112.8 347.645 112.255 348.073 111.561 348.358C110.88 348.63 110.099 348.767 109.219 348.767H107.36V353.395H105.464ZM107.36 347.242H109.033C110.012 347.242 110.737 347.05 111.208 346.666C111.679 346.282 111.914 345.693 111.914 344.9C111.914 344.082 111.666 343.518 111.171 343.209C110.675 342.899 109.938 342.744 108.959 342.744H107.36V347.242ZM117.866 353.618C117.408 353.618 117.042 353.525 116.769 353.339C116.497 353.153 116.299 352.887 116.175 352.54C116.051 352.193 115.989 351.772 115.989 351.276V340.216H117.866V351.387C117.866 351.635 117.909 351.815 117.996 351.927C118.095 352.026 118.201 352.075 118.312 352.075C118.362 352.075 118.405 352.075 118.442 352.075C118.492 352.063 118.56 352.05 118.647 352.038L118.888 353.451C118.765 353.5 118.622 353.538 118.461 353.562C118.3 353.599 118.102 353.618 117.866 353.618ZM123.046 353.618C122.526 353.618 122.061 353.513 121.652 353.302C121.255 353.079 120.939 352.775 120.704 352.391C120.481 351.995 120.369 351.53 120.369 350.997C120.369 350.018 120.803 349.262 121.671 348.729C122.538 348.197 123.92 347.825 125.816 347.614C125.816 347.267 125.76 346.939 125.648 346.629C125.549 346.319 125.37 346.071 125.109 345.885C124.862 345.699 124.515 345.607 124.068 345.607C123.585 345.607 123.12 345.699 122.674 345.885C122.241 346.071 121.832 346.288 121.448 346.536L120.741 345.272C121.051 345.074 121.398 344.888 121.782 344.714C122.166 344.528 122.575 344.38 123.009 344.268C123.455 344.144 123.92 344.082 124.403 344.082C125.147 344.082 125.76 344.237 126.243 344.547C126.739 344.857 127.105 345.297 127.34 345.867C127.575 346.437 127.693 347.125 127.693 347.93V353.395H126.15L126.002 352.354H125.946C125.537 352.701 125.091 352.998 124.608 353.246C124.124 353.494 123.604 353.618 123.046 353.618ZM123.622 352.131C124.019 352.131 124.391 352.038 124.738 351.852C125.085 351.666 125.444 351.4 125.816 351.053V348.804C124.911 348.915 124.192 349.064 123.66 349.25C123.139 349.436 122.761 349.665 122.526 349.938C122.303 350.21 122.191 350.514 122.191 350.848C122.191 351.295 122.327 351.623 122.6 351.834C122.873 352.032 123.213 352.131 123.622 352.131ZM130.384 353.395V344.305H131.927L132.075 345.569H132.131C132.552 345.16 133.005 344.813 133.488 344.528C133.971 344.231 134.523 344.082 135.142 344.082C136.109 344.082 136.815 344.392 137.261 345.012C137.707 345.631 137.931 346.517 137.931 347.67V353.395H136.053V347.911C136.053 347.118 135.929 346.555 135.681 346.22C135.446 345.873 135.056 345.699 134.51 345.699C134.077 345.699 133.692 345.805 133.358 346.015C133.036 346.226 132.67 346.536 132.261 346.945V353.395H130.384Z" fill="black" fill-opacity="0.2"/>
<path d="M157.397 353.395V341.22H164.609V342.818H159.293V346.555H163.81V348.153H159.293V353.395H157.397ZM166.578 353.395V344.305H168.121L168.27 345.941H168.325C168.648 345.359 169.032 344.906 169.478 344.584C169.936 344.25 170.414 344.082 170.909 344.082C171.12 344.082 171.306 344.101 171.467 344.138C171.628 344.163 171.777 344.206 171.913 344.268L171.578 345.904C171.417 345.854 171.269 345.817 171.132 345.792C171.008 345.768 170.853 345.755 170.668 345.755C170.296 345.755 169.905 345.904 169.497 346.201C169.088 346.486 168.741 346.994 168.456 347.726V353.395H166.578ZM177.105 353.618C176.275 353.618 175.525 353.432 174.856 353.06C174.199 352.676 173.672 352.131 173.276 351.425C172.879 350.718 172.681 349.863 172.681 348.859C172.681 347.881 172.879 347.038 173.276 346.331C173.672 345.613 174.186 345.061 174.818 344.677C175.45 344.281 176.12 344.082 176.826 344.082C177.619 344.082 178.288 344.262 178.833 344.621C179.391 344.981 179.812 345.483 180.097 346.127C180.383 346.771 180.525 347.521 180.525 348.376C180.525 348.55 180.513 348.729 180.488 348.915C180.475 349.089 180.457 349.231 180.432 349.343H174.149L174.131 348.042H178.889C178.889 347.249 178.716 346.635 178.369 346.201C178.034 345.768 177.532 345.551 176.863 345.551C176.467 345.551 176.082 345.662 175.711 345.885C175.339 346.108 175.029 346.468 174.781 346.963C174.546 347.447 174.428 348.079 174.428 348.859C174.428 349.615 174.564 350.235 174.837 350.718C175.11 351.202 175.463 351.561 175.897 351.796C176.343 352.032 176.826 352.15 177.346 352.15C177.755 352.15 178.133 352.088 178.48 351.964C178.84 351.84 179.187 351.673 179.521 351.462L180.172 352.651C179.751 352.924 179.28 353.153 178.759 353.339C178.251 353.525 177.7 353.618 177.105 353.618ZM186.435 353.618C185.605 353.618 184.855 353.432 184.186 353.06C183.529 352.676 183.003 352.131 182.606 351.425C182.209 350.718 182.011 349.863 182.011 348.859C182.011 347.881 182.209 347.038 182.606 346.331C183.003 345.613 183.517 345.061 184.149 344.677C184.781 344.281 185.45 344.082 186.156 344.082C186.949 344.082 187.619 344.262 188.164 344.621C188.722 344.981 189.143 345.483 189.428 346.127C189.713 346.771 189.855 347.521 189.855 348.376C189.855 348.55 189.843 348.729 189.818 348.915C189.806 349.089 189.787 349.231 189.763 349.343H183.48L183.461 348.042H188.22C188.22 347.249 188.046 346.635 187.699 346.201C187.365 345.768 186.863 345.551 186.194 345.551C185.797 345.551 185.413 345.662 185.041 345.885C184.669 346.108 184.36 346.468 184.112 346.963C183.876 347.447 183.759 348.079 183.759 348.859C183.759 349.615 183.895 350.235 184.167 350.718C184.44 351.202 184.793 351.561 185.227 351.796C185.673 352.032 186.156 352.15 186.677 352.15C187.086 352.15 187.464 352.088 187.811 351.964C188.17 351.84 188.517 351.673 188.852 351.462L189.502 352.651C189.081 352.924 188.61 353.153 188.09 353.339C187.581 353.525 187.03 353.618 186.435 353.618Z" fill="black" fill-opacity="0.8"/>
<rect x="103.866" y="374.328" width="469.269" height="52.8655" rx="5.31092" fill="#E2E5FF" fill-opacity="0.4"/>
<path d="M114.53 392.147L116.92 385.169H117.791L120.17 392.147H119.342L118.078 388.196C117.95 387.799 117.826 387.41 117.706 387.027C117.593 386.638 117.476 386.238 117.355 385.827H117.313C117.207 386.238 117.093 386.638 116.973 387.027C116.86 387.41 116.736 387.799 116.601 388.196L115.327 392.147H114.53ZM115.741 389.948V389.322H118.938V389.948H115.741ZM121.19 392.147V385.169H123.124C123.641 385.169 124.094 385.236 124.483 385.37C124.873 385.498 125.174 385.71 125.386 386.008C125.606 386.298 125.715 386.695 125.715 387.197C125.715 387.679 125.609 388.075 125.397 388.387C125.184 388.699 124.887 388.932 124.504 389.088C124.122 389.244 123.676 389.322 123.166 389.322H121.976V392.147H121.19ZM121.976 388.674H123.049C123.687 388.674 124.157 388.557 124.462 388.323C124.774 388.082 124.929 387.707 124.929 387.197C124.929 386.673 124.766 386.312 124.441 386.114C124.122 385.909 123.644 385.806 123.007 385.806H121.976V388.674ZM127.155 392.147V385.169H127.941V392.147H127.155ZM132.009 392.147V385.169H132.795V388.769H132.817L135.844 385.169H136.736L134.537 387.813L137.065 392.147H136.184L134.049 388.419L132.795 389.895V392.147H132.009ZM140.063 392.275C139.617 392.275 139.206 392.168 138.831 391.956C138.463 391.736 138.169 391.428 137.95 391.032C137.73 390.628 137.62 390.143 137.62 389.577C137.62 389.017 137.73 388.536 137.95 388.132C138.169 387.728 138.452 387.417 138.799 387.197C139.153 386.978 139.529 386.868 139.925 386.868C140.35 386.868 140.715 386.967 141.019 387.165C141.324 387.364 141.554 387.643 141.71 388.005C141.873 388.359 141.954 388.784 141.954 389.279C141.954 389.364 141.95 389.449 141.943 389.534C141.943 389.612 141.936 389.683 141.922 389.747H138.226L138.215 389.184H141.264C141.264 388.631 141.147 388.213 140.913 387.93C140.679 387.64 140.354 387.495 139.936 387.495C139.681 387.495 139.433 387.569 139.192 387.718C138.952 387.866 138.753 388.093 138.598 388.398C138.442 388.702 138.364 389.095 138.364 389.577C138.364 390.037 138.445 390.419 138.608 390.724C138.771 391.028 138.987 391.258 139.256 391.414C139.532 391.57 139.833 391.648 140.159 391.648C140.421 391.648 140.655 391.609 140.86 391.531C141.072 391.453 141.274 391.354 141.465 391.234L141.752 391.743C141.533 391.885 141.285 392.009 141.009 392.115C140.74 392.221 140.424 392.275 140.063 392.275ZM143.262 394.399C143.149 394.399 143.043 394.388 142.944 394.367C142.845 394.346 142.756 394.321 142.678 394.293L142.827 393.666C142.884 393.687 142.947 393.705 143.018 393.719C143.096 393.74 143.167 393.751 143.231 393.751C143.528 393.751 143.776 393.638 143.974 393.411C144.172 393.192 144.325 392.912 144.431 392.572L144.558 392.179L142.476 386.995H143.273L144.378 389.948C144.463 390.168 144.548 390.405 144.633 390.66C144.725 390.908 144.81 391.152 144.888 391.393H144.93C145.008 391.159 145.086 390.919 145.164 390.671C145.242 390.416 145.313 390.175 145.376 389.948L146.343 386.995H147.097L145.143 392.625C145.022 392.951 144.881 393.248 144.718 393.517C144.555 393.786 144.353 393.999 144.112 394.155C143.879 394.317 143.595 394.399 143.262 394.399Z" fill="#CFCFCF"/>
<path d="M114.53 392.147L116.92 385.169H117.791L120.17 392.147H119.342L118.078 388.196C117.95 387.799 117.826 387.41 117.706 387.027C117.593 386.638 117.476 386.238 117.355 385.827H117.313C117.207 386.238 117.093 386.638 116.973 387.027C116.86 387.41 116.736 387.799 116.601 388.196L115.327 392.147H114.53ZM115.741 389.948V389.322H118.938V389.948H115.741ZM121.19 392.147V385.169H123.124C123.641 385.169 124.094 385.236 124.483 385.37C124.873 385.498 125.174 385.71 125.386 386.008C125.606 386.298 125.715 386.695 125.715 387.197C125.715 387.679 125.609 388.075 125.397 388.387C125.184 388.699 124.887 388.932 124.504 389.088C124.122 389.244 123.676 389.322 123.166 389.322H121.976V392.147H121.19ZM121.976 388.674H123.049C123.687 388.674 124.157 388.557 124.462 388.323C124.774 388.082 124.929 387.707 124.929 387.197C124.929 386.673 124.766 386.312 124.441 386.114C124.122 385.909 123.644 385.806 123.007 385.806H121.976V388.674ZM127.155 392.147V385.169H127.941V392.147H127.155ZM132.009 392.147V385.169H132.795V388.769H132.817L135.844 385.169H136.736L134.537 387.813L137.065 392.147H136.184L134.049 388.419L132.795 389.895V392.147H132.009ZM140.063 392.275C139.617 392.275 139.206 392.168 138.831 391.956C138.463 391.736 138.169 391.428 137.95 391.032C137.73 390.628 137.62 390.143 137.62 389.577C137.62 389.017 137.73 388.536 137.95 388.132C138.169 387.728 138.452 387.417 138.799 387.197C139.153 386.978 139.529 386.868 139.925 386.868C140.35 386.868 140.715 386.967 141.019 387.165C141.324 387.364 141.554 387.643 141.71 388.005C141.873 388.359 141.954 388.784 141.954 389.279C141.954 389.364 141.95 389.449 141.943 389.534C141.943 389.612 141.936 389.683 141.922 389.747H138.226L138.215 389.184H141.264C141.264 388.631 141.147 388.213 140.913 387.93C140.679 387.64 140.354 387.495 139.936 387.495C139.681 387.495 139.433 387.569 139.192 387.718C138.952 387.866 138.753 388.093 138.598 388.398C138.442 388.702 138.364 389.095 138.364 389.577C138.364 390.037 138.445 390.419 138.608 390.724C138.771 391.028 138.987 391.258 139.256 391.414C139.532 391.57 139.833 391.648 140.159 391.648C140.421 391.648 140.655 391.609 140.86 391.531C141.072 391.453 141.274 391.354 141.465 391.234L141.752 391.743C141.533 391.885 141.285 392.009 141.009 392.115C140.74 392.221 140.424 392.275 140.063 392.275ZM143.262 394.399C143.149 394.399 143.043 394.388 142.944 394.367C142.845 394.346 142.756 394.321 142.678 394.293L142.827 393.666C142.884 393.687 142.947 393.705 143.018 393.719C143.096 393.74 143.167 393.751 143.231 393.751C143.528 393.751 143.776 393.638 143.974 393.411C144.172 393.192 144.325 392.912 144.431 392.572L144.558 392.179L142.476 386.995H143.273L144.378 389.948C144.463 390.168 144.548 390.405 144.633 390.66C144.725 390.908 144.81 391.152 144.888 391.393H144.93C145.008 391.159 145.086 390.919 145.164 390.671C145.242 390.416 145.313 390.175 145.376 389.948L146.343 386.995H147.097L145.143 392.625C145.022 392.951 144.881 393.248 144.718 393.517C144.555 393.786 144.353 393.999 144.112 394.155C143.879 394.317 143.595 394.399 143.262 394.399Z" fill="black" fill-opacity="0.2"/>
<path d="M117.108 412.334L116.253 411.72L117.313 409.917L115.454 409.118L115.789 408.133L117.759 408.597L117.945 406.534H119.004L119.19 408.579L121.161 408.133L121.495 409.118L119.618 409.917L120.696 411.72L119.841 412.334L118.484 410.735L117.108 412.334ZM125.077 412.334L124.222 411.72L125.282 409.917L123.423 409.118L123.758 408.133L125.728 408.597L125.914 406.534H126.973L127.159 408.579L129.13 408.133L129.464 409.118L127.587 409.917L128.665 411.72L127.81 412.334L126.453 410.735L125.077 412.334ZM133.046 412.334L132.191 411.72L133.251 409.917L131.392 409.118L131.727 408.133L133.697 408.597L133.883 406.534H134.942L135.128 408.579L137.099 408.133L137.433 409.118L135.556 409.917L136.634 411.72L135.779 412.334L134.422 410.735L133.046 412.334ZM141.015 412.334L140.16 411.72L141.22 409.917L139.361 409.118L139.696 408.133L141.666 408.597L141.852 406.534H142.911L143.097 408.579L145.068 408.133L145.402 409.118L143.525 409.917L144.603 411.72L143.748 412.334L142.391 410.735L141.015 412.334ZM148.984 412.334L148.129 411.72L149.189 409.917L147.33 409.118L147.664 408.133L149.635 408.597L149.821 406.534H150.88L151.066 408.579L153.036 408.133L153.371 409.118L151.494 409.917L152.572 411.72L151.717 412.334L150.36 410.735L148.984 412.334ZM156.953 412.334L156.098 411.72L157.158 409.917L155.299 409.118L155.633 408.133L157.604 408.597L157.79 406.534H158.849L159.035 408.579L161.005 408.133L161.34 409.118L159.463 409.917L160.541 411.72L159.686 412.334L158.329 410.735L156.953 412.334ZM164.922 412.334L164.067 411.72L165.127 409.917L163.268 409.118L163.602 408.133L165.573 408.597L165.759 406.534H166.818L167.004 408.579L168.974 408.133L169.309 409.118L167.432 409.917L168.51 411.72L167.655 412.334L166.298 410.735L164.922 412.334ZM172.891 412.334L172.036 411.72L173.096 409.917L171.237 409.118L171.571 408.133L173.542 408.597L173.728 406.534H174.787L174.973 408.579L176.943 408.133L177.278 409.118L175.401 409.917L176.479 411.72L175.624 412.334L174.267 410.735L172.891 412.334ZM180.86 412.334L180.005 411.72L181.065 409.917L179.206 409.118L179.54 408.133L181.511 408.597L181.697 406.534H182.756L182.942 408.579L184.912 408.133L185.247 409.118L183.37 409.917L184.448 411.72L183.593 412.334L182.236 410.735L180.86 412.334ZM188.829 412.334L187.974 411.72L189.034 409.917L187.175 409.118L187.509 408.133L189.48 408.597L189.666 406.534H190.725L190.911 408.579L192.881 408.133L193.216 409.118L191.339 409.917L192.417 411.72L191.562 412.334L190.205 410.735L188.829 412.334ZM196.798 412.334L195.943 411.72L197.003 409.917L195.144 409.118L195.478 408.133L197.449 408.597L197.635 406.534H198.694L198.88 408.579L200.85 408.133L201.185 409.118L199.308 409.917L200.386 411.72L199.531 412.334L198.174 410.735L196.798 412.334ZM204.767 412.334L203.912 411.72L204.972 409.917L203.113 409.118L203.447 408.133L205.418 408.597L205.604 406.534H206.663L206.849 408.579L208.819 408.133L209.154 409.118L207.277 409.917L208.355 411.72L207.5 412.334L206.143 410.735L204.767 412.334ZM212.736 412.334L211.881 411.72L212.941 409.917L211.082 409.118L211.416 408.133L213.387 408.597L213.573 406.534H214.632L214.818 408.579L216.788 408.133L217.123 409.118L215.246 409.917L216.324 411.72L215.469 412.334L214.112 410.735L212.736 412.334ZM220.705 412.334L219.85 411.72L220.91 409.917L219.051 409.118L219.385 408.133L221.356 408.597L221.542 406.534H222.601L222.787 408.579L224.757 408.133L225.092 409.118L223.214 409.917L224.293 411.72L223.438 412.334L222.081 410.735L220.705 412.334ZM228.674 412.334L227.819 411.72L228.879 409.917L227.02 409.118L227.354 408.133L229.325 408.597L229.511 406.534H230.57L230.756 408.579L232.726 408.133L233.061 409.118L231.183 409.917L232.262 411.72L231.407 412.334L230.05 410.735L228.674 412.334ZM236.643 412.334L235.788 411.72L236.848 409.917L234.989 409.118L235.323 408.133L237.294 408.597L237.48 406.534H238.539L238.725 408.579L240.695 408.133L241.03 409.118L239.152 409.917L240.231 411.72L239.376 412.334L238.019 410.735L236.643 412.334ZM244.612 412.334L243.757 411.72L244.816 409.917L242.958 409.118L243.292 408.133L245.263 408.597L245.448 406.534H246.508L246.694 408.579L248.664 408.133L248.999 409.118L247.121 409.917L248.2 411.72L247.344 412.334L245.988 410.735L244.612 412.334ZM252.581 412.334L251.726 411.72L252.785 409.917L250.927 409.118L251.261 408.133L253.232 408.597L253.417 406.534H254.477L254.663 408.579L256.633 408.133L256.968 409.118L255.09 409.917L256.169 411.72L255.313 412.334L253.957 410.735L252.581 412.334ZM260.55 412.334L259.695 411.72L260.754 409.917L258.896 409.118L259.23 408.133L261.201 408.597L261.386 406.534H262.446L262.632 408.579L264.602 408.133L264.937 409.118L263.059 409.917L264.138 411.72L263.282 412.334L261.926 410.735L260.55 412.334ZM268.519 412.334L267.664 411.72L268.723 409.917L266.865 409.118L267.199 408.133L269.17 408.597L269.355 406.534H270.415L270.601 408.579L272.571 408.133L272.906 409.118L271.028 409.917L272.106 411.72L271.251 412.334L269.894 410.735L268.519 412.334ZM276.488 412.334L275.633 411.72L276.692 409.917L274.834 409.118L275.168 408.133L277.139 408.597L277.324 406.534H278.384L278.57 408.579L280.54 408.133L280.875 409.118L278.997 409.917L280.075 411.72L279.22 412.334L277.863 410.735L276.488 412.334ZM284.457 412.334L283.602 411.72L284.661 409.917L282.803 409.118L283.137 408.133L285.107 408.597L285.293 406.534H286.353L286.539 408.579L288.509 408.133L288.844 409.118L286.966 409.917L288.044 411.72L287.189 412.334L285.832 410.735L284.457 412.334ZM292.426 412.334L291.571 411.72L292.63 409.917L290.772 409.118L291.106 408.133L293.076 408.597L293.262 406.534H294.322L294.508 408.579L296.478 408.133L296.813 409.118L294.935 409.917L296.013 411.72L295.158 412.334L293.801 410.735L292.426 412.334ZM300.395 412.334L299.54 411.72L300.599 409.917L298.741 409.118L299.075 408.133L301.045 408.597L301.231 406.534H302.291L302.477 408.579L304.447 408.133L304.782 409.118L302.904 409.917L303.982 411.72L303.127 412.334L301.77 410.735L300.395 412.334ZM308.364 412.334L307.509 411.72L308.568 409.917L306.71 409.118L307.044 408.133L309.014 408.597L309.2 406.534H310.26L310.446 408.579L312.416 408.133L312.751 409.118L310.873 409.917L311.951 411.72L311.096 412.334L309.739 410.735L308.364 412.334Z" fill="black"/>
<rect x="445.025" y="379.639" width="57.2437" height="42.2437" rx="5.31092" fill="#C5CAFF" fill-opacity="0.5"/>
<path d="M461.192 406.452C460.31 406.452 459.508 406.25 458.786 405.846C458.064 405.443 457.485 404.842 457.049 404.046C456.614 403.249 456.396 402.272 456.396 401.114C456.396 400.254 456.523 399.489 456.778 398.82C457.033 398.151 457.384 397.582 457.83 397.115C458.287 396.637 458.807 396.281 459.391 396.048C459.986 395.803 460.607 395.681 461.255 395.681C461.925 395.681 462.519 395.814 463.04 396.079C463.571 396.345 464.006 396.658 464.346 397.019L463.183 398.422C462.918 398.167 462.636 397.96 462.339 397.8C462.041 397.641 461.696 397.561 461.303 397.561C460.804 397.561 460.353 397.705 459.949 397.991C459.545 398.268 459.227 398.666 458.993 399.186C458.759 399.707 458.642 400.328 458.642 401.05C458.642 401.783 458.749 402.415 458.961 402.946C459.174 403.467 459.476 403.865 459.869 404.141C460.273 404.418 460.74 404.556 461.271 404.556C461.707 404.556 462.095 404.46 462.434 404.269C462.785 404.078 463.093 403.839 463.359 403.552L464.522 404.922C464.097 405.421 463.603 405.804 463.04 406.069C462.477 406.324 461.861 406.452 461.192 406.452ZM469.303 406.452C468.634 406.452 468.007 406.292 467.423 405.974C466.849 405.644 466.382 405.172 466.021 404.556C465.659 403.94 465.479 403.196 465.479 402.325C465.479 401.454 465.659 400.711 466.021 400.095C466.382 399.478 466.849 399.006 467.423 398.676C468.007 398.347 468.634 398.183 469.303 398.183C469.961 398.183 470.577 398.347 471.151 398.676C471.735 399.006 472.208 399.478 472.569 400.095C472.93 400.711 473.111 401.454 473.111 402.325C473.111 403.196 472.93 403.94 472.569 404.556C472.208 405.172 471.735 405.644 471.151 405.974C470.577 406.292 469.961 406.452 469.303 406.452ZM469.303 404.683C469.643 404.683 469.929 404.588 470.163 404.396C470.397 404.205 470.572 403.934 470.689 403.584C470.806 403.223 470.864 402.803 470.864 402.325C470.864 401.847 470.806 401.433 470.689 401.082C470.572 400.721 470.397 400.445 470.163 400.254C469.929 400.052 469.643 399.951 469.303 399.951C468.952 399.951 468.66 400.052 468.426 400.254C468.193 400.445 468.017 400.721 467.901 401.082C467.784 401.433 467.725 401.847 467.725 402.325C467.725 402.803 467.784 403.223 467.901 403.584C468.017 403.934 468.193 404.205 468.426 404.396C468.66 404.588 468.952 404.683 469.303 404.683ZM474.763 409.24V398.374H476.548L476.707 399.17H476.771C477.09 398.894 477.445 398.661 477.838 398.469C478.231 398.278 478.635 398.183 479.049 398.183C479.697 398.183 480.25 398.353 480.706 398.692C481.163 399.022 481.514 399.489 481.758 400.095C482.013 400.689 482.14 401.39 482.14 402.198C482.14 403.1 481.981 403.871 481.662 404.508C481.344 405.135 480.929 405.618 480.42 405.958C479.92 406.287 479.384 406.452 478.81 406.452C478.47 406.452 478.136 406.383 477.807 406.245C477.477 406.096 477.169 405.889 476.882 405.623L476.946 406.882V409.24H474.763ZM478.316 404.667C478.603 404.667 478.869 404.582 479.113 404.412C479.357 404.232 479.549 403.961 479.687 403.6C479.825 403.239 479.894 402.777 479.894 402.214C479.894 401.736 479.841 401.332 479.734 401.003C479.628 400.663 479.464 400.408 479.241 400.238C479.028 400.068 478.757 399.983 478.428 399.983C478.173 399.983 477.929 400.041 477.695 400.158C477.461 400.275 477.212 400.472 476.946 400.748V404.11C477.18 404.311 477.414 404.455 477.647 404.54C477.892 404.625 478.115 404.667 478.316 404.667ZM484.631 409.383C484.397 409.383 484.195 409.367 484.025 409.336C483.855 409.304 483.691 409.266 483.531 409.224L483.93 407.567C484.004 407.578 484.089 407.594 484.185 407.615C484.291 407.647 484.386 407.663 484.471 407.663C484.864 407.663 485.173 407.556 485.396 407.344C485.629 407.131 485.799 406.861 485.905 406.531L486.033 406.085L482.974 398.374H485.173L486.367 401.927C486.484 402.277 486.596 402.638 486.702 403.01C486.808 403.382 486.914 403.764 487.021 404.157H487.084C487.18 403.786 487.27 403.414 487.355 403.042C487.451 402.66 487.546 402.288 487.642 401.927L488.662 398.374H490.765L487.993 406.436C487.748 407.062 487.483 407.594 487.196 408.029C486.909 408.475 486.559 408.81 486.144 409.033C485.73 409.266 485.226 409.383 484.631 409.383Z" fill="#4A59E6"/>
<rect x="507.58" y="379.639" width="60.2437" height="42.2437" rx="5.31092" fill="#4A59E6"/>
<path d="M522.599 406.452C521.919 406.452 521.24 406.324 520.56 406.069C519.891 405.804 519.296 405.427 518.775 404.938L520.034 403.44C520.406 403.78 520.82 404.051 521.277 404.253C521.744 404.455 522.201 404.556 522.647 404.556C523.167 404.556 523.555 404.46 523.81 404.269C524.076 404.067 524.208 403.791 524.208 403.44C524.208 403.207 524.145 403.016 524.017 402.867C523.89 402.718 523.709 402.591 523.475 402.484C523.252 402.368 522.987 402.245 522.679 402.118L521.309 401.528C520.947 401.38 520.608 401.183 520.289 400.939C519.97 400.695 519.71 400.392 519.508 400.031C519.306 399.659 519.205 399.224 519.205 398.724C519.205 398.151 519.359 397.636 519.667 397.179C519.986 396.722 520.416 396.361 520.958 396.095C521.51 395.819 522.137 395.681 522.838 395.681C523.444 395.681 524.033 395.798 524.607 396.032C525.191 396.265 525.701 396.595 526.136 397.019L525.021 398.406C524.692 398.14 524.352 397.933 524.001 397.784C523.651 397.636 523.263 397.561 522.838 397.561C522.413 397.561 522.068 397.651 521.802 397.832C521.548 398.013 521.42 398.268 521.42 398.597C521.42 398.82 521.489 399.006 521.627 399.154C521.765 399.303 521.956 399.436 522.201 399.553C522.456 399.659 522.732 399.776 523.029 399.903L524.368 400.445C524.793 400.615 525.159 400.827 525.467 401.082C525.775 401.337 526.014 401.645 526.184 402.006C526.365 402.357 526.455 402.777 526.455 403.265C526.455 403.839 526.301 404.37 525.993 404.858C525.695 405.336 525.255 405.724 524.67 406.022C524.097 406.308 523.406 406.452 522.599 406.452ZM528.06 406.26V395.076H530.243V397.848L530.147 399.314C530.455 399.027 530.806 398.767 531.199 398.533C531.603 398.299 532.075 398.183 532.617 398.183C533.467 398.183 534.083 398.464 534.465 399.027C534.858 399.59 535.055 400.365 535.055 401.353V406.26H532.872V401.64C532.872 401.045 532.787 400.631 532.617 400.397C532.447 400.164 532.181 400.047 531.82 400.047C531.502 400.047 531.231 400.121 531.008 400.27C530.785 400.408 530.53 400.615 530.243 400.891V406.26H528.06ZM540.446 406.452C539.777 406.452 539.15 406.292 538.566 405.974C537.992 405.644 537.525 405.172 537.164 404.556C536.803 403.94 536.622 403.196 536.622 402.325C536.622 401.454 536.803 400.711 537.164 400.095C537.525 399.478 537.992 399.006 538.566 398.676C539.15 398.347 539.777 398.183 540.446 398.183C541.105 398.183 541.721 398.347 542.294 398.676C542.878 399.006 543.351 399.478 543.712 400.095C544.073 400.711 544.254 401.454 544.254 402.325C544.254 403.196 544.073 403.94 543.712 404.556C543.351 405.172 542.878 405.644 542.294 405.974C541.721 406.292 541.105 406.452 540.446 406.452ZM540.446 404.683C540.786 404.683 541.073 404.588 541.306 404.396C541.54 404.205 541.715 403.934 541.832 403.584C541.949 403.223 542.007 402.803 542.007 402.325C542.007 401.847 541.949 401.433 541.832 401.082C541.715 400.721 541.54 400.445 541.306 400.254C541.073 400.052 540.786 399.951 540.446 399.951C540.096 399.951 539.803 400.052 539.57 400.254C539.336 400.445 539.161 400.721 539.044 401.082C538.927 401.433 538.869 401.847 538.869 402.325C538.869 402.803 538.927 403.223 539.044 403.584C539.161 403.934 539.336 404.205 539.57 404.396C539.803 404.588 540.096 404.683 540.446 404.683ZM547.229 406.26L545.222 398.374H547.389L548.217 402.166C548.281 402.548 548.339 402.936 548.392 403.329C548.456 403.711 548.52 404.099 548.583 404.492H548.647C548.722 404.099 548.796 403.711 548.87 403.329C548.945 402.936 549.03 402.548 549.125 402.166L550.049 398.374H551.961L552.901 402.166C552.997 402.548 553.082 402.936 553.156 403.329C553.241 403.711 553.321 404.099 553.395 404.492H553.459C553.533 404.099 553.597 403.711 553.65 403.329C553.703 402.936 553.767 402.548 553.841 402.166L554.654 398.374H556.677L554.749 406.26H552.184L551.404 402.946C551.329 402.575 551.255 402.203 551.181 401.831C551.117 401.459 551.048 401.061 550.973 400.636H550.91C550.835 401.061 550.766 401.459 550.703 401.831C550.639 402.203 550.564 402.575 550.479 402.946L549.731 406.26H547.229Z" fill="white"/>
<rect x="72.6639" y="143.664" width="531.672" height="424.672" rx="18.3361" stroke="#EAEAEA" stroke-width="1.32773"/>
<g filter="url(#filter0_d_795_9175)">
<rect x="41" y="454" width="601" height="75.4737" rx="7.89474" fill="#9747FF" shape-rendering="crispEdges"/>
<path d="M259.616 502.068C258.087 502.068 256.696 501.718 255.443 501.018C254.191 500.318 253.187 499.278 252.432 497.896C251.676 496.514 251.299 494.82 251.299 492.812C251.299 491.32 251.52 489.993 251.962 488.833C252.404 487.672 253.012 486.687 253.786 485.876C254.578 485.047 255.48 484.43 256.493 484.025C257.525 483.601 258.603 483.389 259.726 483.389C260.887 483.389 261.918 483.62 262.821 484.08C263.742 484.541 264.497 485.084 265.087 485.71L263.07 488.142C262.609 487.7 262.121 487.341 261.605 487.064C261.089 486.788 260.491 486.65 259.809 486.65C258.943 486.65 258.161 486.899 257.461 487.396C256.761 487.875 256.208 488.566 255.803 489.468C255.397 490.371 255.195 491.449 255.195 492.701C255.195 493.972 255.379 495.068 255.747 495.989C256.116 496.892 256.641 497.583 257.322 498.062C258.022 498.541 258.833 498.78 259.754 498.78C260.509 498.78 261.182 498.614 261.771 498.283C262.379 497.951 262.913 497.537 263.374 497.039L265.391 499.416C264.654 500.282 263.797 500.945 262.821 501.405C261.845 501.847 260.776 502.068 259.616 502.068ZM267.88 501.737V488.059H270.975L271.251 490.463H271.361C271.859 489.561 272.448 488.879 273.13 488.418C273.83 487.958 274.53 487.728 275.23 487.728C275.598 487.728 275.911 487.755 276.169 487.811C276.427 487.847 276.648 487.912 276.832 488.004L276.197 491.292C275.957 491.218 275.727 491.163 275.506 491.126C275.303 491.089 275.055 491.071 274.76 491.071C274.226 491.071 273.673 491.264 273.102 491.651C272.531 492.038 272.052 492.72 271.665 493.696V501.737H267.88ZM284.698 502.068C283.408 502.068 282.238 501.783 281.188 501.212C280.157 500.641 279.337 499.83 278.729 498.78C278.121 497.712 277.817 496.422 277.817 494.912C277.817 493.438 278.121 492.167 278.729 491.099C279.356 490.03 280.157 489.201 281.133 488.612C282.11 488.022 283.141 487.728 284.228 487.728C285.499 487.728 286.558 488.013 287.406 488.584C288.271 489.155 288.916 489.938 289.34 490.933C289.782 491.909 290.003 493.024 290.003 494.276C290.003 494.608 289.985 494.939 289.948 495.271C289.911 495.584 289.874 495.824 289.837 495.989H280.802L280.774 493.475H286.742C286.742 492.628 286.549 491.946 286.162 491.43C285.775 490.896 285.158 490.629 284.311 490.629C283.813 490.629 283.335 490.767 282.874 491.043C282.413 491.32 282.036 491.78 281.741 492.425C281.446 493.051 281.299 493.88 281.299 494.912C281.299 495.962 281.483 496.8 281.852 497.426C282.238 498.034 282.727 498.476 283.316 498.753C283.906 499.029 284.532 499.167 285.195 499.167C285.748 499.167 286.263 499.093 286.742 498.946C287.24 498.78 287.737 498.55 288.235 498.255L289.478 500.549C288.796 501.009 288.032 501.378 287.185 501.654C286.356 501.93 285.527 502.068 284.698 502.068ZM296.239 502.068C295.428 502.068 294.719 501.893 294.111 501.543C293.503 501.175 293.024 500.687 292.674 500.079C292.343 499.453 292.177 498.753 292.177 497.979C292.177 496.542 292.794 495.418 294.028 494.608C295.262 493.797 297.252 493.245 299.997 492.95C299.978 492.526 299.886 492.149 299.72 491.817C299.573 491.486 299.333 491.228 299.002 491.043C298.689 490.859 298.265 490.767 297.731 490.767C297.123 490.767 296.515 490.887 295.907 491.126C295.318 491.347 294.7 491.651 294.056 492.038L292.674 489.524C293.227 489.192 293.816 488.888 294.443 488.612C295.069 488.336 295.714 488.124 296.377 487.976C297.04 487.811 297.731 487.728 298.449 487.728C299.61 487.728 300.586 487.958 301.378 488.418C302.17 488.879 302.769 489.561 303.174 490.463C303.579 491.347 303.782 492.471 303.782 493.834V501.737H300.687L300.411 500.3H300.3C299.729 500.816 299.103 501.239 298.422 501.571C297.758 501.903 297.031 502.068 296.239 502.068ZM297.51 499.139C298.007 499.139 298.44 499.029 298.808 498.808C299.195 498.568 299.591 498.255 299.997 497.868V495.271C298.947 495.4 298.118 495.584 297.51 495.824C296.902 496.045 296.469 496.321 296.211 496.653C295.953 496.966 295.824 497.307 295.824 497.675C295.824 498.172 295.981 498.541 296.294 498.78C296.607 499.02 297.012 499.139 297.51 499.139ZM312.47 502.068C310.812 502.068 309.624 501.589 308.905 500.632C308.205 499.674 307.855 498.421 307.855 496.874V491.043H305.976V488.225L308.076 488.059L308.519 484.412H311.641V488.059H314.984V491.043H311.641V496.846C311.641 497.62 311.797 498.191 312.111 498.559C312.442 498.909 312.894 499.084 313.465 499.084C313.704 499.084 313.944 499.057 314.183 499.001C314.422 498.946 314.634 498.882 314.819 498.808L315.426 501.571C315.058 501.682 314.625 501.792 314.128 501.903C313.63 502.013 313.078 502.068 312.47 502.068ZM323.77 502.068C322.481 502.068 321.311 501.783 320.261 501.212C319.23 500.641 318.41 499.83 317.802 498.78C317.194 497.712 316.89 496.422 316.89 494.912C316.89 493.438 317.194 492.167 317.802 491.099C318.428 490.03 319.23 489.201 320.206 488.612C321.182 488.022 322.214 487.728 323.301 487.728C324.572 487.728 325.631 488.013 326.478 488.584C327.344 489.155 327.989 489.938 328.413 490.933C328.855 491.909 329.076 493.024 329.076 494.276C329.076 494.608 329.057 494.939 329.02 495.271C328.984 495.584 328.947 495.824 328.91 495.989H319.874L319.847 493.475H325.815C325.815 492.628 325.622 491.946 325.235 491.43C324.848 490.896 324.231 490.629 323.384 490.629C322.886 490.629 322.407 490.767 321.947 491.043C321.486 491.32 321.109 491.78 320.814 492.425C320.519 493.051 320.372 493.88 320.372 494.912C320.372 495.962 320.556 496.8 320.924 497.426C321.311 498.034 321.799 498.476 322.389 498.753C322.978 499.029 323.605 499.167 324.268 499.167C324.82 499.167 325.336 499.093 325.815 498.946C326.313 498.78 326.81 498.55 327.307 498.255L328.551 500.549C327.869 501.009 327.105 501.378 326.257 501.654C325.428 501.93 324.599 502.068 323.77 502.068ZM337.444 501.737V488.059H340.539L340.816 489.828H340.926C341.516 489.257 342.16 488.768 342.86 488.363C343.579 487.939 344.408 487.728 345.347 487.728C346.821 487.728 347.889 488.216 348.552 489.192C349.234 490.168 349.575 491.513 349.575 493.226V501.737H345.789V493.724C345.789 492.692 345.642 491.974 345.347 491.568C345.052 491.163 344.592 490.961 343.966 490.961C343.413 490.961 342.943 491.089 342.556 491.347C342.169 491.587 341.727 491.946 341.23 492.425V501.737H337.444ZM359.2 502.068C357.911 502.068 356.741 501.783 355.691 501.212C354.66 500.641 353.84 499.83 353.232 498.78C352.624 497.712 352.32 496.422 352.32 494.912C352.32 493.438 352.624 492.167 353.232 491.099C353.858 490.03 354.66 489.201 355.636 488.612C356.612 488.022 357.644 487.728 358.731 487.728C360.002 487.728 361.061 488.013 361.908 488.584C362.774 489.155 363.419 489.938 363.843 490.933C364.285 491.909 364.506 493.024 364.506 494.276C364.506 494.608 364.487 494.939 364.45 495.271C364.414 495.584 364.377 495.824 364.34 495.989H355.304L355.277 493.475H361.245C361.245 492.628 361.052 491.946 360.665 491.43C360.278 490.896 359.661 490.629 358.814 490.629C358.316 490.629 357.837 490.767 357.377 491.043C356.916 491.32 356.539 491.78 356.244 492.425C355.949 493.051 355.802 493.88 355.802 494.912C355.802 495.962 355.986 496.8 356.354 497.426C356.741 498.034 357.229 498.476 357.819 498.753C358.408 499.029 359.035 499.167 359.698 499.167C360.25 499.167 360.766 499.093 361.245 498.946C361.743 498.78 362.24 498.55 362.737 498.255L363.981 500.549C363.299 501.009 362.535 501.378 361.687 501.654C360.858 501.93 360.029 502.068 359.2 502.068ZM369.636 501.737L366.155 488.059H369.912L371.349 494.636C371.46 495.299 371.561 495.971 371.653 496.653C371.764 497.316 371.874 497.988 371.985 498.67H372.095C372.224 497.988 372.353 497.316 372.482 496.653C372.611 495.971 372.758 495.299 372.924 494.636L374.527 488.059H377.843L379.473 494.636C379.639 495.299 379.786 495.971 379.915 496.653C380.062 497.316 380.201 497.988 380.33 498.67H380.44C380.569 497.988 380.68 497.316 380.772 496.653C380.864 495.971 380.974 495.299 381.103 494.636L382.512 488.059H386.022L382.678 501.737H378.23L376.876 495.989C376.747 495.345 376.618 494.7 376.489 494.055C376.378 493.411 376.258 492.72 376.13 491.983H376.019C375.89 492.72 375.77 493.411 375.66 494.055C375.549 494.7 375.42 495.345 375.273 495.989L373.974 501.737H369.636ZM392.067 501.737L397.787 483.721H402.319L408.038 501.737H404.032L401.545 492.453C401.287 491.532 401.029 490.564 400.771 489.551C400.532 488.538 400.283 487.553 400.025 486.595H399.915C399.694 487.553 399.454 488.538 399.196 489.551C398.957 490.564 398.708 491.532 398.45 492.453L395.936 501.737H392.067ZM395.715 497.261V494.304H404.336V497.261H395.715ZM410.093 501.737V483.721H416.117C417.443 483.721 418.64 483.896 419.709 484.246C420.777 484.596 421.625 485.195 422.251 486.042C422.896 486.871 423.218 488.004 423.218 489.441C423.218 490.822 422.905 491.955 422.279 492.839C421.652 493.724 420.805 494.387 419.736 494.829C418.686 495.253 417.517 495.464 416.227 495.464H413.879V501.737H410.093ZM413.879 492.425H415.979C417.176 492.425 418.06 492.176 418.631 491.679C419.202 491.163 419.488 490.417 419.488 489.441C419.488 488.428 419.175 487.728 418.548 487.341C417.94 486.935 417.047 486.733 415.868 486.733H413.879V492.425ZM426.445 501.737V483.721H430.231V501.737H426.445Z" fill="white"/>
<rect x="39.5" y="452.5" width="604" height="78.4737" rx="9.39474" stroke="#9747FF" stroke-width="3" shape-rendering="crispEdges"/>
</g>
<path d="M502.856 516.856L514.171 528.171M479.168 479.971L481.24 487.696M473.696 495.24L465.968 493.168M497.2 484.8L491.541 490.459M476.456 505.541L470.803 511.2M484 498L497.333 530L502.064 516.064L516 511.333L484 498Z" stroke="white" stroke-width="4" stroke-linecap="round" stroke-linejoin="round"/>
<defs>
<filter id="filter0_d_795_9175" x="24" y="437" width="643" height="117.474" filterUnits="userSpaceOnUse" color-interpolation-filters="sRGB">
<feFlood flood-opacity="0" result="BackgroundImageFix"/>
<feColorMatrix in="SourceAlpha" type="matrix" values="0 0 0 0 0 0 0 0 0 0 0 0 0 0 0 0 0 0 127 0" result="hardAlpha"/>
<feOffset dx="4" dy="4"/>
<feGaussianBlur stdDeviation="9"/>
<feComposite in2="hardAlpha" operator="out"/>
<feColorMatrix type="matrix" values="0 0 0 0 0.592157 0 0 0 0 0.278431 0 0 0 0 1 0 0 0 0.4 0"/>
<feBlend mode="normal" in2="BackgroundImageFix" result="effect1_dropShadow_795_9175"/>
<feBlend mode="normal" in="SourceGraphic" in2="effect1_dropShadow_795_9175" result="shape"/>
</filter>
</defs>
</svg>
