<svg width="252" height="32" viewBox="0 0 252 32" fill="none" xmlns="http://www.w3.org/2000/svg">
<g clip-path="url(#clip0_267_6217)">
<path fill-rule="evenodd" clip-rule="evenodd" d="M13.765 0.154857C14.4954 0.0527763 15.2415 0 16 0C24.8366 0 32 7.16344 32 16C32 24.8366 24.8366 32 16 32C7.16344 32 0 24.8366 0 16C0 13.8477 0.424963 11.7947 1.19556 9.92027L12.3637 18.0344L9.44505 9.05165L3.91799 5.51034C4.98326 4.28442 6.23202 3.22221 7.62151 2.36648L18.8637 10.5344L15.9451 1.55165L13.765 0.154857Z" fill="white"/>
</g>
<path d="M49 31.474V2.89315H58.6C60.558 2.89315 62.326 3.11233 63.9041 3.55069C65.4822 3.95982 66.7242 4.69041 67.6301 5.74247C68.5653 6.7653 69.0329 8.16804 69.0329 9.95069C69.0329 11.2658 68.6822 12.5224 67.9808 13.7205C67.3087 14.8895 66.3735 15.6932 65.1753 16.1315V16.3069C66.695 16.6575 67.9516 17.3881 68.9452 18.4986C69.968 19.6091 70.4795 21.1288 70.4795 23.0575C70.4795 24.9863 69.9826 26.579 68.989 27.8356C67.9954 29.063 66.6658 29.9836 65 30.5973C63.3342 31.1817 61.4639 31.474 59.389 31.474H49ZM55.0055 26.8274H58.863C60.7333 26.8274 62.1507 26.4913 63.1151 25.8192C64.0795 25.1178 64.5616 24.0658 64.5616 22.663C64.5616 21.3479 64.0795 20.3982 63.1151 19.8137C62.1507 19.2 60.7333 18.8932 58.863 18.8932H55.0055V26.8274ZM55.0055 14.4219H58.2493C59.9443 14.4219 61.1717 14.1005 61.9315 13.4575C62.7205 12.8146 63.1151 11.9379 63.1151 10.8274C63.1151 9.62922 62.7059 8.78174 61.8877 8.28493C61.0986 7.78813 59.9005 7.53973 58.2932 7.53973H55.0055V14.4219Z" fill="white"/>
<path d="M77.6483 32C76.2748 32 75.1789 31.7224 74.3606 31.1671C73.5424 30.5826 72.9433 29.779 72.5634 28.7562C72.2127 27.7333 72.0373 26.5205 72.0373 25.1178V0.701371H78.0428V25.3808C78.0428 26.0237 78.1597 26.4767 78.3935 26.7397C78.6565 27.0027 78.9195 27.1342 79.1825 27.1342C79.3287 27.1342 79.4455 27.1342 79.5332 27.1342C79.6501 27.105 79.7962 27.0758 79.9716 27.0466L80.7168 31.474C80.3661 31.6201 79.9424 31.737 79.4455 31.8247C78.9487 31.9416 78.3497 32 77.6483 32Z" fill="white"/>
<path d="M90.4921 32C88.651 32 86.9268 31.5616 85.3195 30.6849C83.7414 29.779 82.4556 28.4785 81.462 26.7836C80.4684 25.0886 79.9716 23.0429 79.9716 20.6466C79.9716 18.2502 80.4684 16.2046 81.462 14.5096C82.4556 12.8146 83.7414 11.5142 85.3195 10.6082C86.9268 9.70228 88.651 9.24932 90.4921 9.24932C92.304 9.24932 93.999 9.70228 95.5771 10.6082C97.1844 11.5142 98.4848 12.8146 99.4784 14.5096C100.472 16.2046 100.969 18.2502 100.969 20.6466C100.969 23.0429 100.472 25.0886 99.4784 26.7836C98.4848 28.4785 97.1844 29.779 95.5771 30.6849C93.999 31.5616 92.304 32 90.4921 32ZM90.4921 27.1342C91.4273 27.1342 92.2163 26.8712 92.8592 26.3452C93.5022 25.8192 93.9844 25.074 94.3058 24.1096C94.6273 23.116 94.788 21.9616 94.788 20.6466C94.788 19.3315 94.6273 18.1918 94.3058 17.2274C93.9844 16.2338 93.5022 15.474 92.8592 14.9479C92.2163 14.3927 91.4273 14.1151 90.4921 14.1151C89.5277 14.1151 88.7241 14.3927 88.0812 14.9479C87.4382 15.474 86.9561 16.2338 86.6346 17.2274C86.3131 18.1918 86.1524 19.3315 86.1524 20.6466C86.1524 21.9616 86.3131 23.116 86.6346 24.1096C86.9561 25.074 87.4382 25.8192 88.0812 26.3452C88.7241 26.8712 89.5277 27.1342 90.4921 27.1342Z" fill="white"/>
<path d="M120.467 32V0.701371H126.341V18.8493H126.516L132.181 9.77534H138.003L132.741 18.674L140.742 32H134.578L129.322 22.7069L126.341 26.0822V32H120.467Z" fill="white"/>
<path d="M149.401 32C146.771 32 144.886 31.2402 143.747 29.7205C142.636 28.2009 142.081 26.2137 142.081 23.7589V14.5096H139.1V9.77534H142.432L143.133 3.98904H148.086V9.77534H153.39V14.5096H148.086V23.7151C148.086 24.9425 148.335 25.8484 148.831 26.4329C149.358 26.9881 150.074 27.2658 150.979 27.2658C151.359 27.2658 151.739 27.2219 152.119 27.1342C152.499 27.0466 152.835 26.9443 153.127 26.8274L154.092 31.211C153.507 31.3863 152.821 31.5616 152.031 31.737C151.242 31.9123 150.366 32 149.401 32Z" fill="white"/>
<path d="M164.48 32C162.434 32 160.578 31.547 158.913 30.6411C157.276 29.7352 155.976 28.4493 155.011 26.7836C154.047 25.0886 153.565 23.0429 153.565 20.6466C153.565 18.3087 154.047 16.2922 155.011 14.5973C156.005 12.9023 157.276 11.5872 158.825 10.6521C160.374 9.7169 162.01 9.24932 163.735 9.24932C165.751 9.24932 167.431 9.70228 168.776 10.6082C170.149 11.5142 171.172 12.7562 171.844 14.3342C172.546 15.8831 172.896 17.6511 172.896 19.6384C172.896 20.1644 172.867 20.6904 172.809 21.2164C172.75 21.7132 172.692 22.0932 172.633 22.3562H158.299L158.255 18.3671H167.724C167.724 17.0228 167.417 15.9416 166.803 15.1233C166.189 14.2758 165.21 13.8521 163.866 13.8521C163.077 13.8521 162.317 14.0712 161.587 14.5096C160.856 14.9479 160.257 15.6785 159.789 16.7014C159.322 17.695 159.088 19.01 159.088 20.6466C159.088 22.3123 159.38 23.642 159.965 24.6356C160.578 25.6 161.353 26.3014 162.288 26.7397C163.223 27.1781 164.217 27.3973 165.269 27.3973C166.146 27.3973 166.964 27.2804 167.724 27.0466C168.513 26.7836 169.302 26.4183 170.091 25.9507L172.063 29.589C170.982 30.3196 169.769 30.9041 168.425 31.3425C167.11 31.7808 165.795 32 164.48 32Z" fill="white"/>
<path d="M188.779 31.8164V9.77534H194.784V31.8164H188.779ZM191.803 6.44384C190.839 6.44384 190.035 6.13699 189.392 5.52329C188.75 4.90959 188.428 4.13516 188.428 3.2C188.428 2.26484 188.75 1.50502 189.392 0.920549C190.035 0.30685 190.839 0 191.803 0C192.797 0 193.601 0.30685 194.214 0.920549C194.857 1.50502 195.179 2.26484 195.179 3.2C195.179 4.13516 194.857 4.90959 194.214 5.52329C193.601 6.13699 192.797 6.44384 191.803 6.44384Z" fill="white"/>
<path d="M204.361 32C202.052 32 200.357 31.2256 199.276 29.6767C198.194 28.1279 197.654 25.9945 197.654 23.2767V9.77534H203.659V22.5315C203.659 24.168 203.893 25.3078 204.361 25.9507C204.857 26.5644 205.603 26.8712 206.596 26.8712C207.444 26.8712 208.174 26.6813 208.788 26.3014C209.402 25.8922 210.045 25.2201 210.717 24.2849V9.77534H216.722V32H211.975L211.374 28.4055H211.243C210.308 29.516 209.299 30.3927 208.218 31.0356C207.137 31.6785 205.851 32 204.361 32Z" fill="white"/>
<path d="M219.81 32V9.77534H224.719L225.158 12.6247H225.333C226.21 11.7187 227.174 10.9297 228.226 10.2575C229.278 9.58539 230.505 9.24932 231.908 9.24932C233.457 9.24932 234.714 9.58539 235.678 10.2575C236.642 10.9005 237.388 11.8064 237.914 12.9753C238.878 11.9525 239.901 11.0758 240.982 10.3452C242.093 9.61461 243.349 9.24932 244.752 9.24932C247.09 9.24932 248.8 10.0237 249.881 11.5726C250.962 13.1215 251.503 15.2548 251.503 17.9726V32H245.497V18.7616C245.497 17.1251 245.263 15.9854 244.796 15.3425C244.358 14.6995 243.642 14.3781 242.648 14.3781C242.034 14.3781 241.406 14.568 240.763 14.9479C240.12 15.3279 239.419 15.9123 238.659 16.7014V32H232.653V18.7616C232.653 17.1251 232.42 15.9854 231.952 15.3425C231.514 14.6995 230.798 14.3781 229.804 14.3781C228.606 14.3781 227.276 15.1525 225.815 16.7014L225.674 32H219.81Z" fill="white"/>
<path d="M107.28 10.6082C105.586 11.5142 104.212 12.8146 103.16 14.5096C100.443 18.8864 101.047 20.0321 102.657 20.6534C104.325 19.935 107.178 19.9596 108.42 17.2274C108.859 16.2338 109.472 15.474 110.261 14.9479C111.08 14.3927 112.029 14.1151 113.111 14.1151C114.309 14.1151 115.37 14.7121 116.223 15.5178L119.116 11.6164C118.327 10.9443 117.407 10.389 116.354 9.95069C115.302 9.48311 114.104 9.24932 112.76 9.24932C110.802 9.24932 108.975 9.70228 107.28 10.6082Z" fill="white"/>
<path d="M106.842 30.6849C108.449 31.5616 110.247 32 112.234 32C113.432 32 114.659 31.7954 115.916 31.3863C117.173 30.9772 118.14 30.1041 119.116 29.0767L116.223 25.6521C115.151 26.5549 114.39 27.1342 112.891 27.1342C111.898 27.1342 111.007 26.8712 110.217 26.3452C109.458 25.8192 108.859 25.074 108.42 24.1096C107.217 21.382 104.369 21.314 102.657 20.6534C101.176 21.2918 100.631 22.5168 102.985 26.7836C103.949 28.4785 105.235 29.779 106.842 30.6849Z" fill="white"/>
<path d="M174.548 31.8164V9.77534H179.457L179.896 13.589H180.071C180.86 12.1571 181.795 11.0758 182.876 10.3452C183.943 9.64322 185.407 9.72291 186.646 9.77534V14.6411C186.325 14.5826 185.93 14.5534 185.463 14.5534C184.615 14.5534 183.738 14.8603 182.833 15.474C181.927 16.0877 181.167 17.169 180.553 18.7178V31.8164H174.548Z" fill="white"/>
<defs>
<clipPath id="clip0_267_6217">
<rect width="32" height="32" rx="16" fill="white"/>
</clipPath>
</defs>
</svg>
