<svg width="129" height="128" viewBox="0 0 129 128" fill="none" xmlns="http://www.w3.org/2000/svg">
<rect x="0.5" width="128" height="128" rx="51" fill="url(#paint0_linear_1014_2320)" fill-opacity="0.1"/>
<path fill-rule="evenodd" clip-rule="evenodd" d="M44.5 46H72.1825V50.3184H58.7857H52.7857V56.3184V73.6825H44.5V46ZM52.7857 79.6825H44.5H38.5V73.6825V46V40H44.5H72.1825H78.1825V46V50.3184H86.4682H92.4682V56.3184V84.0009V90.0009H86.4682H58.7857H52.7857V84.0009V79.6825ZM78.1825 56.3184H86.4682V84.0009H58.7857V79.6825H72.1825H78.1825V73.6825V56.3184ZM72.1825 56.3184V73.6825H58.7857V56.3184H72.1825Z" fill="url(#paint1_linear_1014_2320)" style="mix-blend-mode:lighten"/>
<defs>
<linearGradient id="paint0_linear_1014_2320" x1="64.5" y1="0" x2="-21.5671" y2="33.5422" gradientUnits="userSpaceOnUse">
<stop stop-color="#4A59E6"/>
<stop offset="1" stop-color="#1C2DC7"/>
</linearGradient>
<linearGradient id="paint1_linear_1014_2320" x1="65.4841" y1="40" x2="65.4841" y2="90.0009" gradientUnits="userSpaceOnUse">
<stop stop-color="white"/>
<stop offset="1" stop-color="white" stop-opacity="0.14"/>
</linearGradient>
</defs>
</svg>
