<svg width="64" height="64" viewBox="0 0 64 64" fill="none" xmlns="http://www.w3.org/2000/svg">
<rect width="64" height="64" rx="4" fill="#4A59E6" fill-opacity="0.1"/>
<path d="M49.2891 44.713C47.5922 45.1186 45.8212 45.3334 44 45.3334C31.4815 45.3334 21.3333 35.1851 21.3333 22.6667C21.3333 21.3774 21.441 20.1133 21.6478 18.8828C21.5513 18.9756 21.4515 19.0611 21.3465 19.1408C20.5982 19.7089 19.6663 19.9198 17.8024 20.3415L16.1054 20.7254C9.54629 22.2095 6.26672 22.9515 5.48646 25.4606C4.7062 27.9697 6.942 30.5842 11.4136 35.8132L12.5705 37.1659C13.8411 38.6518 14.4765 39.3948 14.7623 40.3139C15.0481 41.2331 14.9521 42.2243 14.76 44.2068L14.5851 46.0117C13.909 52.9883 13.571 56.4766 15.6137 58.0273C17.6565 59.578 20.7271 58.1641 26.8684 55.3365L28.4573 54.6049C30.2025 53.8014 31.0751 53.3996 32 53.3996C32.9249 53.3996 33.7975 53.8014 35.5427 54.6049L37.1315 55.3365C43.2729 58.1641 46.3435 59.578 48.3863 58.0273C50.429 56.4766 50.091 52.9883 49.4149 46.0117L49.2891 44.713Z" fill="#4A59E6"/>
<path opacity="0.3" d="M24.4084 14.4225L23.5346 15.9901C22.5747 17.712 22.0948 18.5729 21.3465 19.141C21.4515 19.0613 21.5512 18.9758 21.6477 18.883C21.441 20.1135 21.3333 21.3776 21.3333 22.6668C21.3333 35.1853 31.4815 45.3335 44 45.3335C45.8212 45.3335 47.5922 45.1187 49.2891 44.7131L49.24 44.207C49.0479 42.2245 48.9519 41.2332 49.2377 40.3141C49.5235 39.3949 50.1589 38.652 51.4295 37.1661L52.5864 35.8133C57.058 30.5844 59.2938 27.9699 58.5135 25.4608C57.7333 22.9517 54.4537 22.2096 47.8946 20.7256L46.1976 20.3416C44.3337 19.9199 43.4018 19.709 42.6535 19.141C41.9052 18.5729 41.4253 17.712 40.4654 15.9901L39.5916 14.4225C36.2138 8.36316 34.525 5.3335 32 5.3335C29.475 5.3335 27.7862 8.36317 24.4084 14.4225Z" fill="#4E4E4E"/>
</svg>
