<svg width="65" height="64" viewBox="0 0 65 64" fill="none" xmlns="http://www.w3.org/2000/svg">
<rect x="0.5" width="64" height="64" rx="32" fill="url(#paint0_linear_555_157)" fill-opacity="0.1"/>
<path fill-rule="evenodd" clip-rule="evenodd" d="M17.7583 44.1854H15.5L16.5488 42.1854L27.6075 21.0978L28.7077 19L29.8894 21.053L31.8472 24.4545L33.6075 21.0978L34.7077 19L35.8894 21.053L48.0527 42.1854L49.2039 44.1854H46.8963H43.2039H40.8963H23.7583H21.5H17.7583ZM24.8072 42.1854H39.7451L31.9287 28.6054L24.8072 42.1854ZM30.7471 26.5524L22.5488 42.1854H18.8072L28.7892 23.1509L30.7471 26.5524ZM33.0289 26.5076L42.0527 42.1854H45.7451L34.7892 23.1509L33.0289 26.5076Z" fill="#4A59E6"/>
<defs>
<linearGradient id="paint0_linear_555_157" x1="32.5" y1="0" x2="-10.5336" y2="16.7711" gradientUnits="userSpaceOnUse">
<stop stop-color="#4A59E6"/>
<stop offset="1" stop-color="#1C2DC7"/>
</linearGradient>
</defs>
</svg>
