<svg width="25" height="24" viewBox="0 0 25 24" fill="none" xmlns="http://www.w3.org/2000/svg">
<path opacity="0.5" d="M4.45491 4.06107C3.5 5.3754 3.5 7.25027 3.5 11V13C3.5 16.7497 3.5 18.6246 4.45491 19.9389C4.76331 20.3634 5.1366 20.7367 5.56107 21.0451C6.8754 22 8.75027 22 12.5 22C16.2497 22 18.1246 22 19.4389 21.0451C19.8634 20.7367 20.2367 20.3634 20.5451 19.9389C21.5 18.6246 21.5 16.7497 21.5 13V11C21.5 7.25027 21.5 5.3754 20.5451 4.06107C20.2367 3.6366 19.8634 3.26331 19.4389 2.95491C18.1246 2 16.2497 2 12.5 2C8.75027 2 6.8754 2 5.56107 2.95491C5.1366 3.26331 4.76331 3.6366 4.45491 4.06107Z" fill="white"/>
<path d="M7.5 8.25C7.08579 8.25 6.75 8.58579 6.75 9C6.75 9.41421 7.08579 9.75 7.5 9.75H17.5C17.9142 9.75 18.25 9.41421 18.25 9C18.25 8.58579 17.9142 8.25 17.5 8.25H7.5Z" fill="white"/>
<path d="M13.0857 13.4685C13.3444 13.1451 13.292 12.6731 12.9685 12.4143C12.6451 12.1556 12.1731 12.208 11.9143 12.5315L9.91434 15.0316C9.73424 15.2567 9.69913 15.5652 9.82403 15.825C9.94892 16.0848 10.2117 16.2501 10.5 16.2501H12.9395L11.9144 17.5315C11.6556 17.8549 11.708 18.3269 12.0315 18.5856C12.3549 18.8444 12.8269 18.792 13.0856 18.4685L15.0856 15.9686C15.2658 15.7435 15.3009 15.4351 15.176 15.1752C15.0511 14.9154 14.7883 14.7501 14.5 14.7501H12.0604L13.0857 13.4685Z" fill="white"/>
</svg>
