<svg width="20" height="20" viewBox="0 0 20 20" fill="none" xmlns="http://www.w3.org/2000/svg">
<path d="M14.3398 -0.000976562C17.7298 -0.000976562 19.9998 2.37902 19.9998 5.91902V14.09C19.9998 17.62 17.7298 19.999 14.3398 19.999H5.66982C2.27982 19.999 -0.000183105 17.62 -0.000183105 14.09V5.91902C-0.000183105 2.37902 2.27982 -0.000976562 5.66982 -0.000976562H14.3398ZM13.0098 6.97002C12.6698 6.62902 12.1198 6.62902 11.7698 6.97002L9.99982 8.74902L8.21982 6.97002C7.86982 6.62902 7.31982 6.62902 6.97982 6.97002C6.63982 7.31002 6.63982 7.87002 6.97982 8.20902L8.75982 9.99002L6.97982 11.76C6.63982 12.11 6.63982 12.66 6.97982 12.999C7.14982 13.169 7.37982 13.26 7.59982 13.26C7.82982 13.26 8.04982 13.169 8.21982 12.999L9.99982 11.23L11.7798 12.999C11.9498 13.18 12.1698 13.26 12.3898 13.26C12.6198 13.26 12.8398 13.169 13.0098 12.999C13.3498 12.66 13.3498 12.11 13.0098 11.77L11.2298 9.99002L13.0098 8.20902C13.3498 7.87002 13.3498 7.31002 13.0098 6.97002Z" fill="#DF5203"/>
</svg>
