<svg width="679" height="299" viewBox="0 0 679 299" fill="none" xmlns="http://www.w3.org/2000/svg">
<path d="M0 0H679V299H0L29 150L0 0Z" fill="#4A59E6"/>
<path d="M143 206.4C136.2 206.4 130.267 205.467 125.2 203.6C120.267 201.733 116 199.467 112.4 196.8C108.8 194 105.667 191.2 103 188.4L107 184C110.867 188.133 115.6 192 121.2 195.6C126.8 199.067 134.2 200.8 143.4 200.8C152.467 200.8 159.933 198.067 165.8 192.6C171.667 187 174.6 179.733 174.6 170.8C174.6 164.667 173 159.267 169.8 154.6C166.733 149.933 161.8 146.267 155 143.6C148.2 140.933 139.4 139.6 128.6 139.6V133.6C138.733 133.6 146.8 132.267 152.8 129.6C158.8 126.933 163.133 123.4 165.8 119C168.467 114.6 169.8 109.733 169.8 104.4C169.8 96.8 167.333 90.7333 162.4 86.2C157.467 81.5333 150.867 79.2 142.6 79.2C136.6 79.2 131 80.6 125.8 83.4C120.6 86.2 116.2 89.6 112.6 93.6L108.6 89.2C112.867 84.9333 117.733 81.2667 123.2 78.2C128.8 75.1333 135.267 73.6 142.6 73.6C148.867 73.6 154.533 74.8 159.6 77.2C164.667 79.6 168.667 83.0667 171.6 87.6C174.667 92.1333 176.2 97.6 176.2 104C176.2 112.533 173.8 119.467 169 124.8C164.333 130 158.467 133.733 151.4 136V136.8C156.733 137.867 161.6 139.867 166 142.8C170.533 145.733 174.133 149.533 176.8 154.2C179.6 158.867 181 164.267 181 170.4C181 177.733 179.333 184.133 176 189.6C172.667 194.933 168.133 199.067 162.4 202C156.667 204.933 150.2 206.4 143 206.4ZM181.136 204L213.936 154L183.936 108.4H190.736L207.136 134C208.736 136.533 210.403 139.133 212.136 141.8C214.003 144.333 215.803 146.933 217.536 149.6H218.336C220.203 146.933 221.936 144.333 223.536 141.8C225.269 139.133 227.003 136.533 228.736 134L244.736 108.4H251.136L221.136 154.4L253.936 204H247.136L229.136 176.4C227.403 173.333 225.536 170.333 223.536 167.4C221.536 164.467 219.536 161.6 217.536 158.8H216.736C214.736 161.6 212.803 164.467 210.936 167.4C209.069 170.333 207.136 173.333 205.136 176.4L187.536 204H181.136Z" fill="white"/>
<path d="M275.112 204V120.544H303.144C308.861 120.544 314.024 121.184 318.632 122.464C323.24 123.659 326.867 125.792 329.512 128.864C332.243 131.851 333.608 135.947 333.608 141.152C333.608 144.992 332.584 148.661 330.536 152.16C328.573 155.573 325.843 157.92 322.344 159.2V159.712C326.781 160.736 330.451 162.869 333.352 166.112C336.339 169.355 337.832 173.792 337.832 179.424C337.832 185.056 336.381 189.707 333.48 193.376C330.579 196.96 326.696 199.648 321.832 201.44C316.968 203.147 311.507 204 305.448 204H275.112ZM292.648 190.432H303.912C309.373 190.432 313.512 189.451 316.328 187.488C319.144 185.44 320.552 182.368 320.552 178.272C320.552 174.432 319.144 171.659 316.328 169.952C313.512 168.16 309.373 167.264 303.912 167.264H292.648V190.432ZM292.648 154.208H302.12C307.069 154.208 310.653 153.269 312.872 151.392C315.176 149.515 316.328 146.955 316.328 143.712C316.328 140.213 315.133 137.739 312.744 136.288C310.44 134.837 306.941 134.112 302.248 134.112H292.648V154.208ZM370.413 205.536C364.44 205.536 359.021 204.213 354.157 201.568C349.378 198.923 345.581 195.168 342.765 190.304C339.949 185.355 338.541 179.381 338.541 172.384C338.541 165.557 339.949 159.669 342.765 154.72C345.666 149.771 349.378 145.931 353.901 143.2C358.424 140.469 363.202 139.104 368.237 139.104C374.125 139.104 379.032 140.427 382.957 143.072C386.968 145.717 389.954 149.344 391.917 153.952C393.965 158.475 394.989 163.637 394.989 169.44C394.989 170.976 394.904 172.512 394.733 174.048C394.562 175.499 394.392 176.608 394.221 177.376H352.365L352.237 165.728H379.885C379.885 161.803 378.989 158.645 377.197 156.256C375.405 153.781 372.546 152.544 368.621 152.544C366.317 152.544 364.098 153.184 361.965 154.464C359.832 155.744 358.082 157.877 356.717 160.864C355.352 163.765 354.669 167.605 354.669 172.384C354.669 177.248 355.522 181.131 357.229 184.032C359.021 186.848 361.282 188.896 364.013 190.176C366.744 191.456 369.645 192.096 372.717 192.096C375.277 192.096 377.666 191.755 379.885 191.072C382.189 190.304 384.493 189.237 386.797 187.872L392.557 198.496C389.4 200.629 385.858 202.336 381.933 203.616C378.093 204.896 374.253 205.536 370.413 205.536ZM423.619 205.536C415.939 205.536 410.435 203.317 407.107 198.88C403.864 194.443 402.243 188.64 402.243 181.472V154.464H393.539V141.408L403.267 140.64L405.315 123.744H419.779V140.64H435.267V154.464H419.779V181.344C419.779 184.928 420.504 187.573 421.955 189.28C423.491 190.901 425.582 191.712 428.227 191.712C429.336 191.712 430.446 191.584 431.555 191.328C432.664 191.072 433.646 190.773 434.499 190.432L437.315 203.232C435.608 203.744 433.603 204.256 431.299 204.768C428.995 205.28 426.435 205.536 423.619 205.536ZM463.424 205.536C455.744 205.536 450.24 203.317 446.912 198.88C443.669 194.443 442.048 188.64 442.048 181.472V154.464H433.344V141.408L443.072 140.64L445.12 123.744H459.584V140.64H475.072V154.464H459.584V181.344C459.584 184.928 460.309 187.573 461.76 189.28C463.296 190.901 465.387 191.712 468.032 191.712C469.141 191.712 470.251 191.584 471.36 191.328C472.469 191.072 473.451 190.773 474.304 190.432L477.12 203.232C475.413 203.744 473.408 204.256 471.104 204.768C468.8 205.28 466.24 205.536 463.424 205.536ZM507.453 205.536C501.48 205.536 496.061 204.213 491.197 201.568C486.418 198.923 482.621 195.168 479.805 190.304C476.989 185.355 475.581 179.381 475.581 172.384C475.581 165.557 476.989 159.669 479.805 154.72C482.706 149.771 486.418 145.931 490.941 143.2C495.464 140.469 500.242 139.104 505.277 139.104C511.165 139.104 516.072 140.427 519.997 143.072C524.008 145.717 526.994 149.344 528.957 153.952C531.005 158.475 532.029 163.637 532.029 169.44C532.029 170.976 531.944 172.512 531.773 174.048C531.602 175.499 531.432 176.608 531.261 177.376H489.405L489.277 165.728H516.925C516.925 161.803 516.029 158.645 514.237 156.256C512.445 153.781 509.586 152.544 505.661 152.544C503.357 152.544 501.138 153.184 499.005 154.464C496.872 155.744 495.122 157.877 493.757 160.864C492.392 163.765 491.709 167.605 491.709 172.384C491.709 177.248 492.562 181.131 494.269 184.032C496.061 186.848 498.322 188.896 501.053 190.176C503.784 191.456 506.685 192.096 509.757 192.096C512.317 192.096 514.706 191.755 516.925 191.072C519.229 190.304 521.533 189.237 523.837 187.872L529.597 198.496C526.44 200.629 522.898 202.336 518.973 203.616C515.133 204.896 511.293 205.536 507.453 205.536ZM536.851 204V140.64H551.187L552.467 151.776H552.979C555.283 147.595 558.014 144.437 561.171 142.304C564.414 140.171 567.656 139.104 570.899 139.104C572.606 139.104 574.056 139.232 575.251 139.488C576.446 139.659 577.47 139.957 578.323 140.384L575.379 155.616C574.27 155.275 573.203 155.019 572.179 154.848C571.24 154.677 570.088 154.592 568.723 154.592C566.248 154.592 563.688 155.488 561.043 157.28C558.398 159.072 556.179 162.229 554.387 166.752V204H536.851Z" fill="white"/>
</svg>
