<svg width="129" height="128" viewBox="0 0 129 128" fill="none" xmlns="http://www.w3.org/2000/svg">
<rect x="0.5" width="128" height="128" rx="51" fill="url(#paint0_linear_1014_2354)" fill-opacity="0.1"/>
<path d="M64.5 97.3332L34.5 80.6665V47.3332L64.5 30.6665L94.5 47.3332V80.6665L64.5 97.3332ZM54.8333 54.8332C56.1111 53.4998 57.5833 52.4721 59.25 51.7498C60.9167 51.0276 62.6667 50.6665 64.5 50.6665C66.3333 50.6665 68.0833 51.0276 69.75 51.7498C71.4167 52.4721 72.8889 53.4998 74.1667 54.8332L84.1667 49.2498L64.5 38.3332L44.8333 49.2498L54.8333 54.8332ZM61.1667 87.8332V76.9165C58.1667 76.1387 55.75 74.5554 53.9167 72.1665C52.0833 69.7776 51.1667 67.0554 51.1667 63.9998C51.1667 63.3887 51.1944 62.8198 51.25 62.2932C51.3056 61.7643 51.4167 61.2221 51.5833 60.6665L41.1667 54.8332V76.7498L61.1667 87.8332ZM64.5 70.6665C66.3333 70.6665 67.9033 70.0132 69.21 68.7065C70.5144 67.4021 71.1667 65.8332 71.1667 63.9998C71.1667 62.1665 70.5144 60.5965 69.21 59.2898C67.9033 57.9854 66.3333 57.3332 64.5 57.3332C62.6667 57.3332 61.0978 57.9854 59.7933 59.2898C58.4867 60.5965 57.8333 62.1665 57.8333 63.9998C57.8333 65.8332 58.4867 67.4021 59.7933 68.7065C61.0978 70.0132 62.6667 70.6665 64.5 70.6665ZM67.8333 87.8332L87.8333 76.7498V54.8332L77.4167 60.6665C77.5833 61.2221 77.6944 61.7643 77.75 62.2932C77.8056 62.8198 77.8333 63.3887 77.8333 63.9998C77.8333 67.0554 76.9167 69.7776 75.0833 72.1665C73.25 74.5554 70.8333 76.1387 67.8333 76.9165V87.8332Z" fill="url(#paint1_linear_1014_2354)" style="mix-blend-mode:lighten"/>
<defs>
<linearGradient id="paint0_linear_1014_2354" x1="64.5" y1="0" x2="-21.5671" y2="33.5422" gradientUnits="userSpaceOnUse">
<stop stop-color="#4A59E6"/>
<stop offset="1" stop-color="#1C2DC7"/>
</linearGradient>
<linearGradient id="paint1_linear_1014_2354" x1="64.5" y1="30.6665" x2="64.5" y2="97.3332" gradientUnits="userSpaceOnUse">
<stop stop-color="white"/>
<stop offset="1" stop-color="white" stop-opacity="0.14"/>
</linearGradient>
</defs>
</svg>
