<svg width="25" height="25" viewBox="0 0 25 25" fill="none" xmlns="http://www.w3.org/2000/svg">
<path fill-rule="evenodd" clip-rule="evenodd" d="M8.75 9.5C8.75 7.42893 10.4289 5.75 12.5 5.75C14.5711 5.75 16.25 7.42893 16.25 9.5C16.25 11.5711 14.5711 13.25 12.5 13.25C10.4289 13.25 8.75 11.5711 8.75 9.5ZM12.5 7.25C11.2574 7.25 10.25 8.25736 10.25 9.5C10.25 10.7426 11.2574 11.75 12.5 11.75C13.7426 11.75 14.75 10.7426 14.75 9.5C14.75 8.25736 13.7426 7.25 12.5 7.25Z" fill="#4A59E6"/>
<path fill-rule="evenodd" clip-rule="evenodd" d="M1.75 12.5C1.75 6.56294 6.56294 1.75 12.5 1.75C18.4371 1.75 23.25 6.56294 23.25 12.5C23.25 18.4371 18.4371 23.25 12.5 23.25C6.56294 23.25 1.75 18.4371 1.75 12.5ZM12.5 3.25C7.39137 3.25 3.25 7.39137 3.25 12.5C3.25 15.0456 4.27827 17.351 5.9421 19.0235C6.1225 18.0504 6.47694 17.1329 7.18837 16.3951C8.25252 15.2915 9.95416 14.75 12.5 14.75C15.0457 14.75 16.7474 15.2915 17.8115 16.3951C18.523 17.1329 18.8774 18.0505 19.0578 19.0236C20.7217 17.3511 21.75 15.0456 21.75 12.5C21.75 7.39137 17.6086 3.25 12.5 3.25ZM17.6937 20.1554C17.5918 18.9435 17.3286 18.0553 16.7318 17.4363C16.0823 16.7628 14.8789 16.25 12.5 16.25C10.121 16.25 8.91761 16.7628 8.26815 17.4363C7.67127 18.0553 7.40811 18.9434 7.30622 20.1553C8.78684 21.1618 10.5747 21.75 12.5 21.75C14.4252 21.75 16.2131 21.1618 17.6937 20.1554Z" fill="#4A59E6"/>
</svg>
