<svg width="20" height="22" viewBox="0 0 20 22" fill="none" xmlns="http://www.w3.org/2000/svg">
<path d="M14.624 5.83709C17.8488 8.02928 19.4612 9.12538 19.4612 11.0001C19.4612 12.8748 17.8488 13.9709 14.624 16.1631C13.7338 16.7682 12.8509 17.338 12.0395 17.8128C11.3277 18.2293 10.5216 18.6602 9.68699 19.0831C6.46977 20.7134 4.86117 21.5286 3.41843 20.6261C1.97568 19.7236 1.84456 17.8342 1.58233 14.0555C1.50816 12.9868 1.46118 11.9392 1.46118 11.0001C1.46118 10.0609 1.50816 9.01333 1.58233 7.9447C1.84457 4.16597 1.97569 2.2766 3.41843 1.37408C4.86117 0.471554 6.46977 1.28672 9.68699 2.91706C10.5216 3.34 11.3277 3.77085 12.0395 4.18738C12.8509 4.66216 13.7338 5.23193 14.624 5.83709Z" fill="black"/>
<path d="M12.0395 4.18738L12.292 3.75583L12.0395 4.18738ZM12.0395 17.8128L12.292 18.2443L12.0395 17.8128ZM1.46118 11.0001H0.961182H1.46118ZM9.68699 2.91706L9.46097 3.36306L9.68699 2.91706ZM1.58233 7.9447L1.08353 7.91009L1.58233 7.9447ZM9.68699 19.0831L9.46097 18.6371L9.68699 19.0831ZM1.58233 14.0555L2.08113 14.0208L1.58233 14.0555ZM14.624 5.83709L14.9051 5.42359L14.624 5.83709ZM14.624 16.1631L14.9051 16.5766L14.624 16.1631ZM9.46097 3.36306C10.29 3.78315 11.0866 4.20909 11.787 4.61892L12.292 3.75583C11.5688 3.33262 10.7532 2.89684 9.913 2.47105L9.46097 3.36306ZM11.787 4.61892C12.5854 5.08613 13.4583 5.64925 14.3429 6.25059L14.9051 5.42359C14.0093 4.8146 13.1163 4.23818 12.292 3.75583L11.787 4.61892ZM14.3429 15.7496C13.4583 16.3509 12.5854 16.914 11.787 17.3812L12.292 18.2443C13.1163 17.762 14.0093 17.1856 14.9051 16.5766L14.3429 15.7496ZM11.787 17.3812C11.0866 17.7911 10.29 18.217 9.46097 18.6371L9.913 19.5291C10.7532 19.1033 11.5688 18.6675 12.292 18.2443L11.787 17.3812ZM2.08113 14.0208C2.00745 12.9592 1.96118 11.9239 1.96118 11.0001H0.961182C0.961182 11.9546 1.00888 13.0145 1.08352 14.0901L2.08113 14.0208ZM1.96118 11.0001C1.96118 10.0763 2.00745 9.04101 2.08113 7.97932L1.08353 7.91009C1.00888 8.98566 0.961182 10.0456 0.961182 11.0001H1.96118ZM9.913 2.47105C8.32188 1.66475 7.06844 1.02742 6.03067 0.716748C4.96286 0.397082 4.03773 0.39689 3.15326 0.950186L3.6836 1.79797C4.24186 1.44874 4.84241 1.40487 5.74389 1.67474C6.67541 1.95361 7.83488 2.53903 9.46097 3.36306L9.913 2.47105ZM2.08113 7.97932C2.21344 6.07267 2.31 4.70336 2.54469 3.69406C2.77435 2.70642 3.11692 2.15246 3.6836 1.79797L3.15326 0.950186C2.2772 1.49822 1.83283 2.3402 1.57068 3.46757C1.31357 4.57326 1.21345 6.038 1.08353 7.91009L2.08113 7.97932ZM9.46097 18.6371C7.83488 19.4611 6.67541 20.0466 5.74388 20.3254C4.84241 20.5953 4.24186 20.5514 3.6836 20.2022L3.15326 21.05C4.03773 21.6033 4.96286 21.6031 6.03067 21.2834C7.06844 20.9727 8.32188 20.3354 9.913 19.5291L9.46097 18.6371ZM1.08352 14.0901C1.21345 15.9622 1.31357 17.4269 1.57068 18.5326C1.83283 19.66 2.2772 20.5019 3.15326 21.05L3.6836 20.2022C3.11691 19.8477 2.77435 19.2937 2.54469 18.3061C2.31 17.2968 2.21344 15.9275 2.08113 14.0208L1.08352 14.0901ZM14.3429 6.25059C15.9708 7.35723 17.1361 8.1516 17.9037 8.89646C18.6497 9.62047 18.9612 10.2419 18.9612 11.0001H19.9612C19.9612 9.88357 19.4665 9.0196 18.6001 8.17883C17.7552 7.35892 16.502 6.50914 14.9051 5.42359L14.3429 6.25059ZM14.9051 16.5766C16.502 15.491 17.7552 14.6412 18.6001 13.8213C19.4665 12.9806 19.9612 12.1166 19.9612 11.0001H18.9612C18.9612 11.7583 18.6497 12.3797 17.9037 13.1037C17.1361 13.8486 15.9708 14.6429 14.3429 15.7496L14.9051 16.5766Z" fill="black"/>
</svg>
